<svg width="116" height="80" viewBox="0 0 116 80" fill="none" xmlns="http://www.w3.org/2000/svg">
<g clip-path="url(#clip0_1_49)">
<path d="M58.1589 0.00372595C76.8102 0.00372595 95.4599 0.00372595 114.111 0.00372595C115.131 0.00372595 115.641 0.496526 115.641 1.48213C115.641 18.8045 115.673 36.1268 115.625 53.4491C115.606 60.27 112.418 65.3329 106.528 68.7494C104.328 70.0271 101.845 70.4524 99.4119 70.9995C93.4718 72.3356 87.5231 73.6305 81.5778 74.9374C73.9773 76.6079 66.375 78.2732 58.7744 79.9385C58.2589 80.0517 57.7519 79.9934 57.2398 79.8785C50.5945 78.4035 43.9492 76.9372 37.3021 75.469C30.9361 74.0627 24.5719 72.6563 18.2059 71.2482C16.7765 70.9327 15.3298 70.6754 13.9194 70.2878C6.72399 68.3051 2.39608 63.6453 0.925282 56.3682C0.692506 55.2225 0.611465 54.0494 0.611465 52.878C0.609741 35.7546 0.609741 18.6329 0.609741 1.51128C0.609741 1.28318 0.620087 1.05336 0.611465 0.82525C0.590774 0.255843 0.837344 -0.0322908 1.43222 0.00372595C1.71844 0.0208768 2.0064 0.00372595 2.29435 0.00372595C20.9164 0.00372595 39.5385 0.00372595 58.1606 0.00372595H58.1589ZM58.1813 3.65342C40.711 3.65342 23.2425 3.65342 5.77219 3.65342C4.86063 3.65342 4.40428 4.11249 4.40313 5.03063C4.40313 21.0924 4.40313 37.1541 4.40313 53.2176C4.40313 60.1705 8.73276 65.4735 15.5609 66.9125C18.2024 67.4699 20.8371 68.0547 23.4718 68.6379C34.7433 71.1333 46.0131 73.6305 57.2829 76.1311C57.8209 76.2511 58.3433 76.2837 58.8968 76.1602C64.4748 74.9236 70.058 73.7128 75.636 72.4814C84.1039 70.6136 92.5666 68.7305 101.034 66.8628C107.542 65.4272 111.963 59.9801 111.965 53.3736C111.965 37.2827 111.965 21.1918 111.965 5.10095C111.965 4.84369 111.954 4.58642 111.961 4.32916C111.973 3.86095 111.742 3.64828 111.278 3.65685C110.963 3.662 110.646 3.65342 110.33 3.65342C92.9459 3.65342 75.5636 3.65342 58.1795 3.65342H58.1813Z" fill="black"/>
<path d="M23.4666 20.9669C20.2474 20.936 17.4869 21.5157 15.1074 23.3749C12.7917 25.1843 12.4382 27.8444 14.2245 30.1494C14.6798 30.736 14.5901 31.1167 13.909 31.5146C12.4848 32.343 10.4346 31.7016 9.60868 30.17C8.30341 27.7517 9.09658 24.7984 11.6002 22.8878C14.3504 20.7902 17.5541 19.8675 20.9233 19.377C24.3408 18.8779 27.6773 19.0649 30.8913 20.4558C34.9864 22.2292 37.1383 26.3317 36.1796 30.7017C35.0399 35.8984 31.8552 39.5841 27.3048 42.1464C23.5287 44.2731 19.3767 44.9214 15.0867 44.8477C14.5918 44.8391 14.0556 44.8254 13.9193 44.208C13.7969 43.6591 14.1694 43.3761 14.6091 43.1566C15.4298 42.7467 15.7678 42.0109 15.9592 41.1723C16.8678 37.1881 17.7696 33.2023 18.7025 29.2233C19.0284 27.8341 19.4025 26.4586 20.0888 25.1791C20.9492 23.5755 22.3441 22.8912 24.0701 22.706C24.3908 22.6717 24.7236 22.6802 24.915 22.9958C25.1029 23.308 24.9909 23.6287 24.7926 23.8774C23.0511 26.0641 22.5286 28.7156 21.9027 31.3277C21.1164 34.6069 20.3371 37.8879 19.5543 41.1671C19.2818 42.3076 19.3266 42.3522 20.506 42.0435C24.3615 41.0333 27.2221 38.6442 29.5188 35.5211C30.9758 33.5384 32.019 31.3586 32.3483 28.882C32.9018 24.7212 30.5482 22.2549 27.0427 21.3802C25.7892 21.0681 24.5029 20.8897 23.4718 20.9686L23.4666 20.9669Z" fill="black"/>
<path d="M37.1056 52.2414C34.1105 52.3494 31.1465 52.6496 28.4498 54.1383C27.41 54.7128 26.4806 55.4126 25.7702 56.3833C24.9978 57.4415 24.6719 57.5461 23.9098 57.0693C22.7907 56.3696 22.42 55.4486 22.8993 54.4813C23.4563 53.3579 24.4046 52.6016 25.4685 52.0201C27.948 50.6635 30.6396 50.0049 33.4484 49.7665C35.1416 49.6225 36.8349 49.6705 38.5195 49.8077C39.2747 49.8677 39.5282 49.5796 39.6851 48.9227C40.1213 47.0876 40.6076 45.2644 41.0697 43.4379C41.4749 41.8428 42.7336 40.7143 44.3182 40.5308C45.3596 40.4108 45.72 40.7915 45.4562 41.8068C44.7734 44.4343 44.0854 47.0601 43.3578 49.6756C43.1629 50.3771 43.2526 50.7373 44.0078 51.034C45.401 51.5811 46.6804 52.37 47.7633 53.4162C48.2805 53.917 48.484 53.8107 48.6306 53.159C49.222 50.5383 49.8203 47.9211 50.4359 45.3056C50.848 43.5528 51.2497 41.8 52.4653 40.3593C53.4016 39.2496 54.6793 38.9752 56.0018 38.838C56.6553 38.7694 56.8863 39.2651 56.5501 39.8859C56.1828 40.5634 55.6863 41.1602 55.3431 41.86C54.35 43.8889 53.9516 46.0928 53.4085 48.2504C52.5084 51.8246 51.686 55.4194 50.8393 59.0074C50.5014 60.4378 49.5703 61.2713 48.1926 61.6572C47.2374 61.9247 46.7235 61.4617 46.9166 60.4995C47.1356 59.407 47.3632 58.3145 47.6426 57.2357C47.8115 56.5823 47.6495 56.0797 47.2184 55.5892C46.0804 54.2926 44.5992 53.5757 43.0008 53.0338C42.2835 52.7902 42.2318 53.3596 42.1059 53.7558C41.4197 55.9151 40.5765 58.0092 39.4575 59.9816C38.1539 62.2798 36.5728 64.3224 34.0002 65.3618C33.1277 65.7151 32.2259 65.8386 31.2965 65.7219C30.7654 65.6568 30.3051 65.4115 29.9688 64.993C29.6257 64.5643 29.6619 64.1338 30.2292 64C33.6208 63.2008 35.2675 60.6041 36.6935 57.8034C37.3935 56.4262 37.8918 54.9581 38.3591 53.4848C38.704 52.3975 38.6729 52.3374 37.5401 52.2414C37.397 52.2294 37.2539 52.2414 37.1004 52.2414H37.1056Z" fill="black"/>
<path d="M84.7953 30.9984C84.1625 31.7925 83.578 32.5934 82.7503 33.1851C80.376 34.883 77.5879 33.878 76.9637 31.0533C76.5102 29.0072 77.024 27.0657 77.8086 25.2083C78.8673 22.7025 80.4139 20.5655 82.9727 19.3564C84.3315 18.715 85.6833 18.5589 86.8679 19.7457C87.2093 20.087 87.3955 19.9035 87.6145 19.6154C88.1559 18.9036 88.8801 18.4594 89.7491 18.2622C90.6957 18.0478 91.0803 18.3994 90.8578 19.3324C90.1578 22.248 89.4267 25.1568 88.7077 28.069C88.6525 28.2903 88.6025 28.5132 88.5576 28.7379C88.2628 30.206 88.4594 30.3775 89.8836 29.8939C90.1422 29.8064 90.3957 29.7395 90.594 29.9796C90.7854 30.2129 90.7113 30.4787 90.5699 30.7017C89.806 31.9091 88.8266 32.8352 87.3213 32.9896C86.0713 33.1182 85.4695 32.6329 84.7953 31.0018V30.9984ZM80.5915 29.3811C80.6984 30.2335 80.4157 31.187 81.3468 31.5129C82.2244 31.8199 82.9176 31.199 83.3883 30.5473C85.2764 27.9284 85.9471 24.9081 86.1126 21.7575C86.1506 21.0303 85.6609 20.7473 84.9505 20.9549C84.3866 21.1195 83.9211 21.4437 83.5262 21.8776C81.5588 24.0403 80.8588 26.6815 80.5933 29.3811H80.5915Z" fill="black"/>
<path d="M44.2026 35.8126C43.3629 36.996 42.7732 38.0457 41.8783 38.8638C41.2024 39.4812 40.4455 39.9237 39.5247 40.0129C37.6384 40.1964 36.2607 38.6477 36.54 36.6324C36.8314 34.5366 37.3728 32.4888 37.8763 30.4358C38.185 29.1753 38.3384 27.9078 38.0694 26.6181C37.9505 26.0452 38.2453 25.776 38.7695 25.6439C40.6834 25.1603 42.1887 26.5237 41.9214 28.5407C41.7783 29.6177 41.5231 30.6725 41.1921 31.7119C40.7317 33.1594 40.3765 34.6309 40.423 36.1659C40.4317 36.4746 40.392 36.8382 40.7645 36.972C41.0886 37.0886 41.2904 36.816 41.499 36.629C43.3302 34.9945 44.3802 32.8713 45.1941 30.6262C45.6424 29.3931 45.9614 28.1136 46.3011 26.8445C46.6839 25.4141 47.5408 24.4931 49.0202 24.1827C50.0738 23.9614 50.4669 24.2959 50.2341 25.3438C49.7996 27.2955 49.303 29.2319 48.8185 31.1733C48.5564 32.2264 48.2598 33.2709 47.9978 34.3256C47.915 34.6549 47.8581 35.0014 47.8546 35.3393C47.8426 36.1659 48.184 36.3683 48.9306 35.9996C49.2582 35.8366 49.603 35.5125 49.9341 35.8761C50.2755 36.25 49.9996 36.6444 49.76 36.9583C49.1409 37.7644 48.3909 38.4196 47.4098 38.7711C45.7114 39.3766 44.3233 38.4761 44.2026 36.6839C44.1888 36.4867 44.2009 36.2877 44.2009 35.8143L44.2026 35.8126Z" fill="black"/>
<path d="M97.5532 19.7835C97.9135 19.3907 98.2705 18.9962 98.636 18.6086C99.5223 17.6671 100.393 16.7169 101.755 16.4391C103.767 16.0309 105.259 17.1748 105.102 19.2055C104.949 21.1984 104.369 23.1313 103.897 25.0745C103.7 25.8789 103.502 26.6867 103.398 27.5048C103.286 28.3983 103.612 28.6024 104.438 28.2508C104.773 28.1085 105.135 27.8152 105.457 28.1839C105.795 28.5698 105.509 28.9523 105.271 29.2644C104.654 30.0757 103.9 30.7188 102.914 31.0653C101.234 31.6535 99.7275 30.6211 99.7016 28.8562C99.6844 27.7003 100.005 26.5941 100.217 25.4741C100.533 23.8173 100.898 22.1726 101.219 20.5175C101.305 20.0767 101.441 19.5365 100.943 19.2758C100.459 19.022 100.077 19.4044 99.7378 19.7149C97.8135 21.4677 96.6307 23.6561 95.9806 26.143C95.6634 27.359 95.4047 28.5921 95.0875 29.8081C94.7478 31.1116 93.5822 32.0892 92.2459 32.2281C91.6493 32.2898 91.3044 32.0137 91.2734 31.4186C91.2596 31.1373 91.2924 30.8457 91.3544 30.5696C92.12 27.1395 92.8718 23.7059 93.6787 20.2843C94.0495 18.7133 95.0375 17.6653 96.6617 17.2932C97.5635 17.0874 97.936 17.4527 97.7308 18.3325C97.6239 18.7904 97.4928 19.2415 97.3721 19.6943C97.4325 19.7252 97.4928 19.756 97.5532 19.7869V19.7835Z" fill="black"/>
<path d="M67.1233 44.8374C67.7837 44.2525 68.5596 43.5768 69.3217 42.8873C69.9252 42.3419 70.577 41.8926 71.3822 41.6936C73.5117 41.1671 75.2584 42.7313 74.8101 44.8683C74.3997 46.8234 73.8204 48.7409 73.3376 50.6824C73.1289 51.5228 73.1479 52.3855 73.2238 53.2413C73.3048 54.1503 73.7531 54.8466 74.5118 55.3663C74.8635 55.6081 75.2739 55.8997 75.1274 56.397C74.9722 56.9219 74.4497 56.9613 73.9911 56.999C71.8547 57.1723 70.2856 55.8911 69.7494 53.5569C69.4218 52.1265 69.5683 50.715 69.9252 49.3172C70.1942 48.2658 70.5098 47.2265 70.7977 46.1786C70.8581 45.959 70.915 45.7344 70.9288 45.508C70.9495 45.141 71.0184 44.7208 70.6356 44.4961C70.227 44.256 69.9287 44.5853 69.6511 44.8134C67.7044 46.4187 66.5302 48.518 65.8232 50.8899C65.449 52.1488 65.1232 53.4265 64.8714 54.7145C64.5904 56.1535 63.6799 56.9441 62.3712 57.3884C61.3487 57.7365 60.7746 57.2632 60.9884 56.1964C61.3643 54.3201 61.7936 52.4541 62.2143 50.5863C62.5971 48.8867 62.9764 47.1853 63.3954 45.4925C63.7334 44.1291 64.5679 43.148 65.9025 42.6541C66.3526 42.4877 66.8905 42.3694 67.2975 42.7313C67.6889 43.0777 67.4113 43.5374 67.3354 43.9438C67.2664 44.3057 67.1647 44.6624 67.1216 44.8357L67.1233 44.8374Z" fill="black"/>
<path d="M56.8122 25.7177C57.7847 25.0453 58.2468 24.1844 58.9779 23.5961C59.2227 23.3989 59.4434 23.169 59.7038 22.9958C61.1142 22.0594 62.5247 21.929 63.5575 22.73C64.7455 23.6527 64.7611 24.9287 64.4231 26.2442C63.9179 28.208 63.2403 30.1271 62.9713 32.1492C62.7592 33.7425 62.9523 35.1746 64.4197 36.1694C64.7076 36.3649 64.9628 36.6393 64.8662 37.0286C64.7593 37.4557 64.3783 37.5552 64.0007 37.6169C62.185 37.9153 60.4745 36.9189 59.8297 35.1832C59.34 33.8677 59.24 32.5077 59.4676 31.1322C59.69 29.7773 60.0193 28.4464 60.4556 27.1412C60.5107 26.9782 60.5728 26.817 60.6125 26.6507C60.7297 26.1567 60.9901 25.565 60.4676 25.2323C59.9021 24.8721 59.4451 25.3506 59.0468 25.7211C57.0932 27.5374 55.9742 29.8218 55.3173 32.3585C55.031 33.4647 54.781 34.5812 54.5103 35.6909C54.1689 37.0869 53.1516 37.7592 51.8463 38.0731C51.0324 38.2686 50.5083 37.797 50.6876 36.9892C51.5221 33.2246 52.3429 29.4548 53.2861 25.7159C53.6464 24.2873 54.7603 23.4246 56.2363 23.1399C57.0122 22.9907 57.3312 23.3251 57.195 24.0866C57.1105 24.5583 56.9777 25.0231 56.8122 25.7159V25.7177Z" fill="black"/>
<path d="M91.6889 53.4077C90.3302 53.3648 89.2681 53.1693 88.3128 52.5673C87.1438 51.8315 86.7507 50.4783 87.4162 49.2846C87.9594 48.3087 88.806 47.6964 89.9267 47.5112C90.7165 47.3809 90.9958 47.6656 90.9096 48.4476C90.8561 48.9296 90.8027 49.4132 90.7854 49.8969C90.7578 50.6532 91.0372 51.2501 91.801 51.5073C92.5942 51.7749 93.2149 51.4267 93.7012 50.847C94.5599 49.8197 94.3098 48.3825 93.1063 47.4718C92.4907 47.0053 91.8252 46.6039 91.1751 46.1803C88.9594 44.7362 88.656 42.3368 90.4526 40.4039C92.3062 38.4076 95.4961 37.6375 98.067 38.5568C98.8378 38.8329 99.355 39.3268 99.4206 40.1604C99.4861 40.9888 99.1809 41.6731 98.4446 42.1241C98.2739 42.2288 98.0946 42.3231 97.9118 42.4071C96.5359 43.0451 96.1824 42.8205 96.2307 41.3472C96.2479 40.831 96.1307 40.3473 95.5996 40.1432C94.9237 39.8842 94.2926 40.018 93.7839 40.5497C93.3942 40.9579 93.0891 41.4072 93.3667 42.0075C93.5494 42.4037 93.8081 42.7484 94.1684 42.9988C94.8737 43.4893 95.5737 43.9919 96.3031 44.4464C98.4326 45.7721 98.9791 48.2178 97.567 50.2999C96.1031 52.4592 93.915 53.2207 91.6855 53.4094L91.6889 53.4077Z" fill="black"/>
<path d="M79.4018 50.4406C79.4294 51.1232 79.2501 52.1471 80.2467 52.6599C81.2278 53.1641 82.0882 52.6084 82.8848 52.0922C83.6297 51.6102 84.3315 51.0597 85.0557 50.5469C85.3316 50.3514 85.6299 50.2553 85.9178 50.5229C86.1903 50.7767 86.1747 51.0837 86.0109 51.3873C84.7695 53.6821 81.4123 55.651 78.8587 54.9341C77.0861 54.4367 76.0412 53.3493 75.736 51.5622C75.0067 47.2814 77.3482 41.1997 83.2194 39.9666C84.6005 39.6767 85.8592 39.8002 86.8248 40.9544C87.7731 42.0898 87.6731 43.3521 87.111 44.587C86.0523 46.9109 84.1487 48.2315 81.7175 48.8661C81.2106 48.9982 80.6967 48.981 80.4864 48.403C80.2674 47.801 80.6864 47.5249 81.1813 47.326C82.9831 46.6056 83.8073 45.1101 84.2987 43.3727C84.4108 42.9731 84.5453 42.4757 84.097 42.1962C83.6711 41.9303 83.1935 42.0675 82.79 42.3196C81.7865 42.9491 81.0847 43.8615 80.6019 44.9094C79.8294 46.5868 79.3829 48.355 79.4001 50.4388L79.4018 50.4406Z" fill="black"/>
<path d="M65.4197 30.5422C65.6715 26.4277 67.2319 23.0799 71.1202 21.1607C72.3496 20.5535 73.6583 20.2362 75.0412 20.6324C76.9844 21.1881 77.5327 22.8174 76.3068 24.409C75.8412 25.0145 75.2688 25.4913 74.4894 25.6182C73.7842 25.7314 73.4497 25.3884 73.5635 24.6886C73.6324 24.2667 73.7652 23.8551 73.8393 23.4332C73.8893 23.1519 73.9135 22.8415 73.6324 22.6511C73.3341 22.4504 73.0238 22.5379 72.7375 22.6974C72.1754 23.0112 71.7375 23.4743 71.3529 23.97C69.6356 26.1807 69.12 28.7808 69.1493 31.4735C69.1683 33.276 70.358 33.866 71.9892 33.0548C72.9444 32.5814 73.7635 31.8954 74.6153 31.2659C74.9705 31.0035 75.3636 30.7171 75.7619 31.1202C76.1567 31.5198 75.8705 31.916 75.605 32.2641C74.1807 34.1318 72.4703 35.5434 69.9701 35.5965C67.2854 35.6548 65.5801 34.0667 65.4215 31.398C65.4042 31.1133 65.4197 30.8269 65.4197 30.5405V30.5422Z" fill="black"/>
<path d="M54.5068 56.1089C54.5724 55.6012 54.5931 55.0816 54.7103 54.5859C55.3207 51.9756 55.9173 49.3618 56.5949 46.7668C56.9639 45.3536 57.9864 44.4892 59.3986 44.1462C60.3314 43.9198 60.7263 44.3091 60.5021 45.2439C59.7883 48.2109 58.9537 51.1489 58.3485 54.1434C58.3088 54.3389 58.264 54.5345 58.2364 54.7317C58.0605 56.0574 58.2278 56.1998 59.4676 55.7659C59.7245 55.6767 59.9693 55.6081 60.1866 55.8276C60.4366 56.0815 60.3211 56.3507 60.1969 56.6166C59.6624 57.7708 57.814 58.9113 56.5518 58.8633C55.2069 58.8119 54.5344 57.8926 54.5086 56.1072L54.5068 56.1089Z" fill="black"/>
<path d="M61.7712 40.3747C61.7746 41.6268 61.0263 42.829 59.9676 43.2647C58.8744 43.7157 57.9002 43.1154 57.8364 41.9526C57.7692 40.7298 58.5537 39.4092 59.6159 38.9615C60.8125 38.4556 61.7677 39.0816 61.7712 40.3747Z" fill="black"/>
<path d="M101.026 51.1832C100.079 51.1729 99.2153 50.2913 99.2343 49.3549C99.255 48.4048 100.133 47.5575 101.078 47.5764C102.045 47.5952 102.886 48.4545 102.866 49.4012C102.845 50.3462 101.971 51.1935 101.026 51.1832Z" fill="black"/>
</g>
<defs>
<clipPath id="clip0_1_49">
<rect width="115.041" height="80" fill="white" transform="translate(0.609741)"/>
</clipPath>
</defs>
</svg>
