<svg width="201" height="40" viewBox="0 0 201 40" fill="none" xmlns="http://www.w3.org/2000/svg">
<g clip-path="url(#clip0_1_19)">
<path d="M184.25 19.9887C184.31 16.4087 185.356 14.4525 190.23 14.2562C195.503 14.0437 200.172 6.34877 200.61 2.90627C198.96 3.36627 197.085 3.77627 195.37 3.69877C193.896 3.63127 192.362 3.63626 190.99 4.24751C189.687 4.82626 188.546 5.84624 187.757 7.02499C187.262 7.76499 186.836 8.64501 186.583 9.50001C186.348 10.2975 186.348 10.5562 186.155 11.2337C186.155 11.2337 186.032 11.685 186.291 11.3388C189.6 6.91627 195.281 5.01625 197.201 5.8025C196.081 6.0875 194.285 6.82999 193.188 7.43874C188.44 10.0762 184.308 14.9225 184.231 14.8087L184.25 19.9887Z" fill="black"/>
<path d="M193.503 35.395H194.595C194.903 35.395 195.143 35.4913 195.305 35.6562C195.432 35.795 195.505 35.9912 195.505 36.2162V36.2225C195.505 36.65 195.266 36.9112 194.92 37.0137L195.586 37.9963H195.076L194.473 37.0875H194.467H193.937V37.9963H193.505L193.503 35.395ZM194.566 36.685C194.868 36.685 195.071 36.515 195.071 36.2525V36.2425C195.071 35.9675 194.876 35.8138 194.558 35.8138H193.937V36.685H194.566Z" fill="black"/>
<path d="M194.477 39.3113C193.037 39.3113 191.863 38.1363 191.863 36.6975C191.863 35.2525 193.037 34.085 194.477 34.085C195.917 34.085 197.088 35.2538 197.088 36.6975C197.088 38.1363 195.916 39.3113 194.477 39.3113ZM194.477 34.5225C193.273 34.5225 192.301 35.5 192.301 36.6975C192.301 37.8925 193.273 38.87 194.477 38.87C195.672 38.87 196.647 37.8925 196.647 36.6975C196.647 35.5 195.672 34.5225 194.477 34.5225Z" fill="black"/>
<path d="M0.609741 34.4712H2.98725C5.49225 34.4712 5.69723 34.0313 5.75348 31.915C5.91973 28.1888 5.91973 10.4988 5.75348 7.49626C5.63973 5.32626 5.32226 4.65248 3.32226 4.65248H0.66349V0.703735C0.66349 0.703735 6.82726 0.871239 10.386 0.871239C13.946 0.871239 19.6747 0.703735 20.346 0.703735V4.65248H17.5623C15.5635 4.65248 14.7235 5.37498 14.6148 7.54623C14.5023 8.87998 14.2223 13.2738 14.2223 17.9475C18.5085 18.0025 25.9185 18.0025 30.5898 17.9475C30.5898 13.275 30.4135 8.93373 30.301 7.54623C30.1347 5.37623 29.2447 4.65248 27.2422 4.65248H24.701V0.703735C24.701 0.703735 30.9122 0.871239 34.4735 0.871239C38.0335 0.871239 43.576 0.703735 44.246 0.703735V4.65248H41.481C39.4822 4.65248 38.9347 5.215 38.7672 7.38625C38.5985 10.3875 38.5985 28.0788 38.7672 31.8063C38.876 33.8088 39.3148 34.4712 41.8185 34.4712H44.246V38.535C44.246 38.535 38.0347 38.4238 34.4735 38.4238C30.9135 38.4238 24.701 38.535 24.701 38.535V34.4712H27.0747C29.5785 34.4712 30.2447 33.8588 30.301 31.9675C30.3572 30.2975 30.5898 25.8475 30.5898 21.1737C25.9185 21.1187 18.5085 21.1187 14.2223 21.2312C14.2223 25.9037 14.5598 30.2975 14.6148 31.9675C14.7235 33.8588 15.1723 34.4712 17.7298 34.4712H20.346V38.535C20.346 38.535 13.946 38.4238 10.386 38.4238C6.82726 38.4238 0.609741 38.535 0.609741 38.535C0.663491 38.0888 0.663491 34.915 0.609741 34.4712Z" fill="black"/>
<path d="M60.1835 9.89876C68.751 9.89876 74.3623 14.665 74.3623 25.105C74.3623 35.0013 68.6922 39.8912 60.1835 39.8912C51.4922 39.8912 46.0022 34.9413 46.0022 25.105C46.0022 14.725 51.676 9.89876 60.1835 9.89876ZM60.1835 36.0875C63.3222 36.0875 65.5535 34.5175 65.5535 25.105C65.5535 15.7488 63.3222 13.6375 60.1235 13.6375C56.8647 13.6375 54.816 15.75 54.816 25.105C54.816 34.5175 56.9272 36.0875 60.1835 36.0875Z" fill="black"/>
<path d="M108.474 30.9413C108.59 33.8363 108.818 34.88 111.411 34.88H112.196C112.137 35.785 112.137 38.5013 112.196 38.925C111.475 38.925 108.19 38.7438 105.232 38.7438C102.275 38.7438 97.386 38.925 97.0222 38.925V34.88H97.9885C100.16 34.88 101.007 33.855 101.127 31.08C101.25 28.2438 101.25 25.1063 101.127 21.6638C100.946 17.1388 98.5597 14.3625 95.0572 14.3625C90.8347 14.3625 89.3247 18.105 89.3247 25.6475V31.0175C89.3247 33.9125 90.2323 34.8788 92.5223 34.8788H93.5497V38.9238C92.8247 38.9238 88.176 38.7425 85.221 38.7425C82.1998 38.7425 77.7022 39.025 77.2785 39.025V34.9788H78.4248C80.901 34.92 81.5035 34.015 81.6247 31.1788C81.741 28.0413 81.741 20.6788 81.6247 18.385C81.5035 16.0913 81.1397 14.7038 78.2435 14.7038H77.3372V10.8425C80.0535 10.8425 86.971 10.7413 89.3235 10.5588L89.3648 13.8925C90.6635 11.5113 92.7748 9.40127 98.6198 9.89877C105.771 10.5063 108.48 14.3337 108.362 21.0912C108.3 24.5925 108.407 28.5863 108.474 30.9413Z" fill="black"/>
<path d="M151.42 16.8962C151.42 19.0087 152.687 19.975 159.085 20.6987C166.686 21.4812 169.582 25.0425 169.582 30.2338C169.582 36.2063 166.081 39.89 158.477 39.89C155.583 39.89 152.926 39.0437 150.39 37.2937C148.462 35.9675 148.038 37.1725 147.798 39.0437C147.075 38.9837 145.565 38.9837 144.901 39.0437C145.323 35.665 145.503 32.1037 145.262 28.6037C145.987 28.6637 147.433 28.6637 148.097 28.6037C149.79 33.0712 153.05 36.2062 158.057 36.2062C161.741 36.2062 163.43 34.6975 163.43 32.7075C163.43 30.9562 162.221 29.6888 156.429 29.0863C147.857 28.3025 145.206 23.955 145.206 19.43C145.206 13.8175 149.85 9.71499 156.971 9.89749C159.87 9.95749 161.681 10.7413 163.306 11.8288C164.816 12.7925 165.18 12.4925 165.544 10.3175C166.207 10.3787 167.535 10.3787 168.196 10.3175C167.895 13.7575 167.838 16.0512 167.895 19.37C167.173 19.2487 165.784 19.2487 165.059 19.37C163.609 14.965 160.532 13.635 156.791 13.635C152.866 13.6375 151.42 15.2675 151.42 16.8962Z" fill="black"/>
<path d="M139.816 31.1612C138.801 36.8137 135.037 39.8613 127.687 39.8613C118.962 39.8613 113.884 34.7487 113.884 25.1212C113.884 15.315 119.62 9.95999 127.747 9.95999C137.125 9.95999 140.889 16.6375 140.294 26.0825H122.367C122.547 33.005 124.519 35.53 128.705 35.53C132.822 35.53 134.204 33.8025 134.86 30.4325C135.512 30.4313 139.161 31.1612 139.816 31.1612ZM122.367 23.795H130.313C131.27 23.795 131.688 23.615 131.688 22.05C131.688 16.4563 130.376 13.8688 127.445 13.8688C124.279 13.87 122.486 16.3375 122.367 23.795Z" fill="black"/>
<path d="M188.81 33.8462C188.707 33.8062 188.631 33.7688 188.586 33.7513C188.152 34.6113 187.622 35.485 186.54 35.485C184.911 35.485 184.367 34.1562 184.307 29.1475C184.269 27.1237 184.252 23.5025 184.247 19.9887L184.245 16.0662V14.5425L184.307 11.0425C184.367 7.66377 184.547 2.83625 184.911 0H181.53C180.566 7.3625 177.97 11.1025 172.66 11.4062V14.6038L175.798 14.5425C175.798 17.8025 175.735 25.4662 175.676 30.2937C175.616 36.39 178.092 39.6463 183.702 39.6463C188.221 39.6463 190.29 37.5275 190.995 34.3163C190.415 34.2488 189.421 34.0862 188.81 33.8462Z" fill="black"/>
</g>
<defs>
<clipPath id="clip0_1_19">
<rect width="200" height="40" fill="white" transform="translate(0.609741)"/>
</clipPath>
</defs>
</svg>
