<svg width="219" height="42" viewBox="0 0 219 42" fill="none" xmlns="http://www.w3.org/2000/svg">
<g clip-path="url(#clip0_5_180)">
<path d="M218.881 42H218.218V39.99L217.484 42H217.012L216.278 39.99V42H215.615V39.196H216.549L217.263 41.0553L217.966 39.196H218.901L218.881 42ZM215.223 39.7085H214.419V42H213.715V39.7085H212.911V39.196H215.223V39.7085Z" fill="#1A1B1F"/>
<path d="M210.368 40.5025C210.841 39.7689 211.735 39.3367 211.665 38.1508C211.703 37.3915 211.585 36.6326 211.319 35.9205C211.053 35.2085 210.644 34.5584 210.117 34.0101C207.444 30.2714 202.941 29.6884 199.203 27.9799C198.047 27.206 196.077 27.0553 195.605 25.3166C195.605 24.6834 196.218 24.4221 196.69 24.3116C198.449 24.3618 200.067 25.4774 201.494 26.5729C204.75 29.6985 209.725 31.9196 213.554 30.0101C214.187 29.5879 213.936 28.6935 213.876 28C213.566 27.4487 213.111 26.9932 212.559 26.6834C209.933 27.0552 207.258 26.5047 204.992 25.1256C203.042 23.9867 201.028 22.9599 198.961 22.0503C197.098 21.4148 195.185 20.9342 193.243 20.6131C191.233 20.5126 188.981 20.2613 187.273 21.789C186.738 22.339 186.343 23.0095 186.121 23.744C185.898 24.4786 185.856 25.2557 185.997 26.0101C186.368 26.7136 186.429 27.6583 187.002 28.2211C187.777 29.0924 188.716 29.8027 189.765 30.3116C194.208 32.8442 198.811 33.407 202.529 36.6131C202.69 36.9246 203.162 37.4171 202.811 37.8091C202.459 38.201 201.896 38.0503 201.434 38.0804C196.961 37.1357 194.017 32.5829 189.484 31.8694C188.017 31.789 185.765 31.6181 185.162 33.5578C185.112 34.3116 184.71 35.0754 185.444 35.7588C185.635 36.0201 185.916 35.8995 186.137 35.9297C189.383 34.9246 192.861 37.2663 195.866 38.8342C197.032 39.2161 198.338 39.99 199.595 40.4322C201.655 41.5276 203.775 41.4372 205.856 41.8694C207.283 41.9799 209.444 41.5377 210.298 40.4724" fill="#1A1B1F"/>
<path d="M180.228 22.8342C179.022 24.01 179.223 25.7688 180.981 24.5126C183.997 22.392 187.012 20.2814 188.338 14.9246C189.665 9.56783 190.087 4.35175 194.7 1.50753C196.007 0.68341 195.373 -0.50252 193.916 0.261299C192.459 1.02512 185.353 4.2814 183.866 9.63818C182.378 14.995 183.052 20.1608 180.298 22.8342" fill="#1A1B1F"/>
<path d="M161.012 24.1206C161.233 22.593 160.308 20.5226 161.645 19.5377C162.901 19.196 163.936 18.2814 165.313 18.2613C165.906 18.603 166.529 18.6432 166.861 19.3869C167.705 22.7437 167.122 26.4221 167.715 29.8392C168.368 31.7186 170.187 32.3216 171.735 32.794C172.657 33.1749 173.623 33.4415 174.61 33.5879C175.662 34.0308 176.756 34.3674 177.876 34.593C178.268 34.836 178.721 34.9616 179.182 34.9548L180.991 32.9447C180.68 31.7387 179.755 31.5075 178.851 31.2362L177.484 29.6683C177.012 26.2714 177.203 22.794 175.936 19.3668C175.432 17.9067 174.512 16.6261 173.288 15.6831C172.065 14.7401 170.592 14.176 169.052 14.0603C167.042 13.6482 165.032 14.6734 163.253 15.4472C162.7 15.6784 162.358 16.6935 161.645 16.1508C161.645 15.0151 161.645 13.9598 161.564 12.8442C161.414 11.0955 162.569 9.47739 161.504 7.68844C160.78 6.35176 159.494 6.56281 158.318 6.59297C157.18 6.64366 156.049 6.80523 154.941 7.07538H154.157C153.223 6.90452 152.238 7.25628 151.363 6.80402C150.622 6.6765 149.91 6.41421 149.263 6.03015C148.499 6.03015 148.107 6.61307 147.836 7.32663C147.727 7.66219 147.698 8.01833 147.75 8.36709C147.803 8.71585 147.935 9.04774 148.137 9.33668C149.012 10.4523 150.198 9.9598 151.323 9.70854C151.916 9.55779 152.087 10.3015 152.328 10.7136C152.489 13.7286 151.856 16.6432 151.936 19.6683V19.8392C151.765 21.2362 151.936 22.9849 151.394 24.2412L149.474 25.3568C149.044 25.3441 148.623 25.2268 148.248 25.0151C147.745 25.0151 147.243 24.191 146.73 24.6935C146.48 25.003 146.314 25.3722 146.248 25.765C146.183 26.1578 146.221 26.5609 146.358 26.9347C146.74 28.3719 148.258 28.2714 149.162 28.4523C149.856 28.804 150.569 28.3719 151.253 28.7638C154.439 29.3367 157.645 29.3668 160.831 29.9297C161.343 30.2714 161.765 30.1407 162.288 30.2814C163.223 30.1206 164.057 31.2864 165.052 30.5427C165.242 30.3409 165.389 30.1019 165.482 29.8407C165.575 29.5795 165.614 29.3018 165.595 29.0251C165.414 27.0151 164.137 27.2965 162.891 27.3065L160.921 25.1256C160.921 24.7638 161.002 24.4121 161.012 24.1206Z" fill="#1A1B1F"/>
<path d="M134.218 15.7688C133.366 15.2421 132.385 14.963 131.383 14.963C130.382 14.963 129.401 15.2421 128.549 15.7688C126.73 16.1306 128.067 18.7236 127.705 20.0301C128.017 21.1457 127.323 22.9146 128.65 23.2965C129.542 23.8677 130.541 24.2514 131.587 24.4242C132.632 24.597 133.702 24.5552 134.73 24.3015C135.658 23.6065 136.383 22.6767 136.831 21.608C136.991 20.9425 137.008 20.2505 136.879 19.5781C136.751 18.9056 136.481 18.2683 136.087 17.7085C135.537 16.9739 134.911 16.3 134.218 15.6985M120.208 32.4724C118.499 32.5729 116.851 32.3015 115.042 32.7739C114.821 32.5427 114.429 32.7739 114.278 32.4322C113.908 31.7609 113.807 30.9739 113.997 30.2311C114.075 30.0281 114.193 29.8432 114.345 29.6876C114.497 29.5321 114.68 29.4093 114.881 29.3266C116.248 29.1256 118.198 30.6834 118.981 28.5729C118.76 23.9899 118.73 19.6583 118.559 14.9045C118.535 14.759 118.48 14.6206 118.396 14.499C118.313 14.3775 118.204 14.2757 118.077 14.201C116.7 13.8693 114.72 15.7387 113.896 13.4573C113.755 12.804 113.474 11.8794 114.057 11.4472C114.66 10.5528 115.725 11.0653 116.539 11.0754L117.715 10.8945C120.017 10.8945 122.64 10.1206 125.002 10.0804C125.504 10.0804 126.228 9.69848 126.75 10.0804C127.554 10.7035 126.67 12.9246 128.057 12.4221C129.23 11.1248 130.738 10.1751 132.415 9.67702C134.091 9.17893 135.873 9.15159 137.564 9.59798C139.981 10.1265 142.15 11.4499 143.725 13.3568C144.779 14.6299 145.556 16.1085 146.007 17.6985C146.901 21.2261 145.002 24.2713 142.851 26.2613C140.789 27.605 138.354 28.2628 135.896 28.1407C133.151 27.8736 130.475 27.1287 127.986 25.9397C127.775 25.809 127.615 26.2814 127.534 26.4925C127.534 27.4171 127.434 28.9447 128.177 29.5075C129.494 30.4322 131.193 29.6985 132.6 30.1608C133.343 30.5528 133.434 31.4774 133.424 32.2512C133.346 32.6199 133.132 32.9457 132.825 33.1637C132.517 33.3816 132.139 33.4757 131.765 33.4271C129.997 33.206 122.328 32.4221 120.208 32.4221" fill="#1A1B1F"/>
<path d="M96.2076 13.2362C95.8265 13.8919 95.6092 14.6298 95.5742 15.3874C95.5392 16.1451 95.6875 16.8999 96.0066 17.5879C96.2076 17.9498 96.3684 18.593 96.8709 18.593C98.4488 17.2965 100.509 17.5879 102.137 16.4121C102.77 15.7487 102.208 14.8241 102.248 14.0302C101.062 11.608 97.8759 11.9096 96.2176 13.206M109.635 10.9045C111.193 11.7588 112.921 12.5427 113.293 14.6633C113.33 15.289 113.21 15.9139 112.943 16.4811C112.676 17.0482 112.271 17.5393 111.765 17.9096C109.676 19.0905 107.261 19.563 104.881 19.2563C102.67 19.2563 100.539 19.397 98.7604 20.7839C98.5292 21.7889 99.5744 21.6985 99.9664 22.1307C103.243 23.799 107.263 23.1156 110.278 21.608C111.198 20.8872 112.013 20.0415 112.7 19.0955C112.834 18.8753 113.047 18.715 113.296 18.6476C113.545 18.5803 113.81 18.6111 114.037 18.7337C114.255 18.8269 114.452 18.9643 114.614 19.1372C114.777 19.3102 114.902 19.515 114.981 19.7387C115.102 22 112.861 22.5628 111.745 24.0201C109.062 26.4322 105.806 26.9548 102.63 27.6482C99.695 27.7487 95.9664 27.8693 93.2126 26.6432C91.9965 26.6432 91.2026 25.6382 90.1975 25.2462C88.1875 23.5578 86.087 21.5779 86.1774 18.2814C86.1421 16.3966 86.788 14.5624 87.9965 13.1156C90.1774 10.8342 92.7403 9.21608 98.2176 9.04523C102.094 8.87026 105.964 9.51406 109.574 10.9347" fill="#1A1B1F"/>
<path d="M82.0669 9.19598C82.6197 9.19598 82.4589 10.1106 82.9614 10.201C83.1536 11.0282 83.0356 11.8972 82.6297 12.6432C78.7503 17.0854 73.5141 14.0703 68.8709 13.1759C68.3166 13.1212 67.7571 13.1823 67.2276 13.3553C66.6982 13.5284 66.2106 13.8095 65.7955 14.1809C65.7075 14.3465 65.6615 14.5311 65.6615 14.7186C65.6615 14.9061 65.7075 15.0907 65.7955 15.2563C67.3031 16.4121 69.0418 16.01 70.6699 16.3719C72.6096 16.2714 74.5694 16.2814 76.5192 16.2613C78.7704 16.3719 81.1523 16.0402 83.293 17.2663C83.9772 17.9479 84.4877 18.7838 84.7815 19.7038C85.0753 20.6237 85.1439 21.6008 84.9815 22.5528C84.4689 25.5678 81.494 26.4523 79.283 27.1558C77.4337 27.4573 75.6146 28.1005 73.7553 28.0502C71.685 28.0502 69.6146 27.8492 67.5543 27.8794C65.494 27.9095 63.293 27.8794 61.3031 29.0452C60.298 29.3869 59.7955 31.2563 58.6599 30.4322C57.9262 29.9598 58.1473 29.0352 57.8558 28.2915C58.0367 25.3668 60.3684 24.8141 62.1975 23.7286C66.4689 22.0402 70.8106 26.2714 75.1121 25.5578C75.3652 25.4485 75.5794 25.2653 75.7264 25.0321C75.8735 24.7989 75.9467 24.5267 75.9362 24.2513C75.9043 23.988 75.8182 23.7342 75.6832 23.5058C75.5483 23.2775 75.3675 23.0796 75.1523 22.9246C72.9111 22.3719 70.7101 22.5729 68.4991 22.4121C67.9934 22.3826 67.4861 22.4232 66.9915 22.5327C64.1975 22.1809 60.5895 23.6181 58.5493 20.5226C58.2063 19.5554 58.0772 18.5252 58.1709 17.5032C58.2646 16.4813 58.5788 15.4918 59.092 14.603C60.2779 12.4824 62.4287 11.3467 64.3483 10.4824C66.2679 9.61809 70.7905 11.0553 74.1372 10.7337C77.484 10.4121 80.2478 10.6734 82.0367 9.18593" fill="#1A1B1F"/>
<path d="M38.2377 17.5578C36.891 17.8292 36.2277 18.8844 35.695 20.2211C35.1322 23.2362 37.2026 25.5377 39.0116 27.2563C40.8207 28.3317 42.7805 29.2663 44.7503 28.5729C45.5845 28.6734 46.4186 27.9699 47.0619 27.4874C47.432 27.1345 47.7242 26.7081 47.9197 26.2356C48.1153 25.7631 48.2099 25.255 48.1975 24.7437C48.0053 23.4779 47.5087 22.2778 46.7503 21.2462C46.2753 20.6255 45.7473 20.0471 45.1724 19.5176C44.2793 18.6281 43.1718 17.9841 41.957 17.6479C40.7422 17.3116 39.4611 17.2944 38.2377 17.598M53.896 14.0704C54.938 14.706 55.7758 15.627 56.3102 16.7243C56.8446 17.8216 57.0532 19.0491 56.9111 20.2613C56.9111 24.1608 54.288 26.995 51.685 29.1357C48.097 31.2764 44.2277 32.7236 40.4287 32.6131C37.219 33.0491 33.9527 32.7747 30.8609 31.8091C29.2428 30.9246 27.4036 29.799 27.1624 27.4975C27.0518 26.9146 27.2729 26.2915 27.0217 25.7387C27.1121 23.1156 28.7805 20.6533 30.3785 18.9849C32.6498 16.593 36.9714 14.0905 42.4388 13.1357C47.9061 12.1809 51.6046 12.4422 53.9664 14.0704" fill="#1A1B1F"/>
<path d="M10.7805 41.4774C14.1839 40.8645 17.4615 39.6893 20.479 38C22.6498 36.5226 25.1021 35.3568 26.3885 32.5829C26.5851 31.9345 26.6393 31.2513 26.5474 30.58C26.4555 29.9087 26.2196 29.2651 25.8559 28.6935C23.9957 25.8424 23.033 22.4992 23.0921 19.0955C23.9664 16.6935 26.3182 16.8844 28.0468 16.1508C28.4735 15.7937 28.7557 15.2936 28.8408 14.7437C28.9011 14.3459 28.8369 13.9392 28.657 13.5793C28.4771 13.2195 28.1902 12.9241 27.8358 12.7337C26.8307 12.2714 25.5745 13.0553 24.7001 13.3769C22.3091 14.51 19.8602 15.5164 17.3634 16.392C14.2812 17.3029 11.0798 17.7467 7.86592 17.7085C6.63979 17.9598 5.1423 18.3618 4.73024 19.9799C4.51919 20.8543 5.07195 21.5176 5.33326 22.1809C7.54431 22.6231 9.68502 21.0955 11.9061 21.2764C13.6951 21.5578 13.7654 24.1307 13.9966 25.8191C14.7605 27.9021 15.2767 30.0677 15.5343 32.2714C15.5347 33.0264 15.3619 33.7716 15.0291 34.4494C14.6963 35.1272 14.2124 35.7195 13.6147 36.1809C12.2177 37.7387 10.0669 37.9397 8.23778 38.0603C6.76039 37.4372 4.91115 36.6231 4.85085 34.4724C4.86434 34.3119 4.93098 34.1605 5.0402 34.0422C5.14942 33.9239 5.29499 33.8454 5.45386 33.8191C5.84582 33.7387 6.00662 34.3015 6.14733 34.6131C6.95135 35.8995 8.35838 35.6181 9.59456 35.4573C10.1538 35.1384 10.6282 34.6899 10.978 34.1495C11.3278 33.609 11.5427 32.9925 11.6046 32.3518C11.5538 30.9548 11.1039 29.6015 10.3081 28.4523C9.65635 27.7454 8.79496 27.2662 7.85061 27.0853C6.90627 26.9044 5.92879 27.0313 5.0619 27.4472C2.65989 28.7337 0.790544 30.1508 0.730243 33.1658C0.669941 36.1809 1.56441 39.5276 4.40863 40.8241C7.25286 42.1206 8.42874 41.7588 10.7805 41.4472" fill="#1A1B1F"/>
</g>
<defs>
<clipPath id="clip0_5_180">
<rect width="218.151" height="42" fill="white" transform="translate(0.730225)"/>
</clipPath>
</defs>
</svg>
