<svg width="1296" height="1594" viewBox="0 0 1296 1594" fill="none" xmlns="http://www.w3.org/2000/svg">
<rect width="1296" height="1594" fill="#EF3B24"/>
<rect width="1296" height="1594" fill="url(#paint0_linear_201:3)" fill-opacity="0.2"/>
<g clip-path="url(#clip0_201:3)">
<path d="M747.059 837.167C735.917 831.345 724.774 825.567 713.632 819.834C712.998 819.504 712.384 819.137 711.794 818.734C709.554 817.3 709.02 817.167 708.084 817.867C707.148 818.567 707.014 819.567 707.482 822.267C707.629 822.926 707.729 823.594 707.783 824.267C708.318 829.5 708.986 834.7 709.621 839.9H752.24L747.059 837.167Z" fill="white"/>
<path d="M717.309 875.9L718.546 875.133C720.289 874.061 721.964 872.881 723.56 871.6C724.664 870.559 726.09 869.924 727.604 869.8H728.206C729.111 870.013 729.957 870.421 730.685 870.998C731.413 871.574 732.005 872.303 732.418 873.133C736.696 879.567 741.242 886.133 746.256 893.133C746.923 893.945 747.686 894.673 748.529 895.3H748.696H748.93C749.595 895.039 750.233 894.715 750.835 894.333C755.315 891.367 759.76 888.3 764.206 885.233C767.147 883.2 767.281 883.133 765.075 879.967L761.632 874.9C758.089 869.733 754.546 864.6 750.869 859.533C750.338 858.907 749.942 858.178 749.706 857.392C749.471 856.607 749.4 855.781 749.498 854.967C749.709 854.182 750.083 853.45 750.595 852.818C751.108 852.187 751.748 851.669 752.473 851.3C754.479 850.067 756.384 848.733 758.29 847.367L759.426 846.533C760.596 845.733 760.83 845.167 760.83 845C760.83 844.833 760.563 844.3 759.459 843.567C758.891 843.2 758.289 842.9 757.721 842.6L747.025 837.033C735.883 831.211 724.741 825.433 713.599 819.7C712.964 819.371 712.35 819.003 711.76 818.6C709.521 817.167 708.986 817.033 708.05 817.733C707.114 818.433 706.98 819.433 707.448 822.133C707.595 822.792 707.695 823.461 707.749 824.133C708.418 830.6 709.22 837.033 710.022 843.467L711.526 855.8C712.295 862.1 713.03 868.367 713.966 874.633C714.167 875.867 714.535 876.433 714.802 876.533C715.069 876.633 716.005 876.767 717.309 875.9Z" fill="white"/>
<path d="M889.655 638H406.312C398.803 638 391.602 640.975 386.292 646.269C380.983 651.564 378 658.745 378 666.233V811.567C378 819.055 380.983 826.236 386.292 831.531C391.602 836.825 398.803 839.8 406.312 839.8H704.808C704.173 834.767 703.538 829.8 703.036 824.667C703.036 824.133 702.869 823.567 702.769 823C702.197 821.403 702.127 819.669 702.569 818.031C703.011 816.393 703.943 814.929 705.242 813.833C706.646 812.877 708.334 812.426 710.028 812.553C711.723 812.68 713.324 813.379 714.568 814.533C715.021 814.836 715.49 815.114 715.972 815.367C727.114 821.1 738.256 826.889 749.398 832.733L759.961 838.233C760.729 838.616 761.477 839.039 762.201 839.5L762.535 839.767H889.554C897.063 839.767 904.264 836.792 909.574 831.497C914.883 826.203 917.866 819.021 917.866 811.533V666.233C917.866 658.763 914.897 651.597 909.609 646.305C904.321 641.013 897.146 638.026 889.655 638V638ZM472.897 677.367C473.053 675.284 473.86 673.302 475.203 671.7C476.148 670.592 477.383 669.769 478.77 669.321C480.158 668.874 481.642 668.82 483.059 669.167C483.841 669.366 484.611 669.61 485.365 669.9V669.9L487.538 670.8C487.538 670.433 487.538 670.1 487.538 669.733C487.615 669.372 487.716 669.016 487.838 668.667C486.863 668.709 485.891 668.527 484.997 668.133C483.471 667.504 482.219 666.354 481.465 664.888C480.712 663.422 480.506 661.737 480.886 660.133C480.941 659.872 481.077 659.635 481.275 659.455C481.473 659.275 481.723 659.163 481.989 659.133C482.882 658.933 483.807 658.911 484.709 659.069C485.611 659.227 486.473 659.563 487.244 660.056C488.015 660.549 488.681 661.19 489.202 661.941C489.723 662.693 490.089 663.54 490.279 664.433C490.287 664.522 490.287 664.611 490.279 664.7L490.613 664.433C491.728 663.593 493.092 663.147 494.49 663.167C494.765 663.167 495.029 663.276 495.223 663.469C495.417 663.663 495.527 663.926 495.527 664.2C495.527 664.474 495.417 664.737 495.223 664.931C495.029 665.125 494.765 665.233 494.49 665.233C493.478 665.246 492.496 665.575 491.681 666.172C490.865 666.77 490.258 667.607 489.944 668.567C489.61 669.367 489.376 670.233 489.109 671.067H489.276C490.306 670.104 491.568 669.422 492.94 669.087C494.312 668.752 495.747 668.775 497.107 669.153C498.467 669.532 499.707 670.253 500.706 671.248C501.706 672.243 502.431 673.478 502.813 674.833C503.47 676.991 503.686 679.258 503.449 681.5C503.238 684.303 502.465 687.034 501.175 689.533C499.917 691.771 498.075 693.627 495.845 694.906C493.615 696.185 491.079 696.84 488.507 696.8C485.063 697.041 481.641 696.088 478.82 694.101C476 692.115 473.955 689.218 473.031 685.9C472.382 683.097 472.337 680.189 472.897 677.367V677.367ZM505.721 791.833H429.944V676.967H464.54V765.733H505.721V791.833ZM505.721 759.167H471.125V704.3H505.721V759.167ZM605.799 791.967H571.37V745.5C571.598 741.861 570.4 738.275 568.028 735.5C565.628 733.151 562.399 731.835 559.036 731.835C555.673 731.835 552.445 733.151 550.045 735.5C547.697 738.289 546.502 741.864 546.702 745.5V791.967H512.139V704.3H546.735V717.633C549.502 713.493 553.213 710.066 557.565 707.633C562.513 704.953 568.082 703.619 573.71 703.767C578.148 703.529 582.581 704.307 586.672 706.04C590.762 707.773 594.4 710.416 597.309 713.767C603.32 721.575 606.332 731.27 605.799 741.1V791.967ZM696.786 720.667L676.095 748.433L696.786 775.1V791.767H668.44L646.78 756.8V791.767H612.184V676.767H646.78V736.767L668.774 703.967H696.786V720.667ZM737.398 791.833H702.802V704.2H737.398V720.367C740.78 715.419 745.192 711.258 750.334 708.167C755.107 705.19 760.616 703.597 766.245 703.567V721.867C763.291 722.698 760.425 723.814 757.688 725.2C750.461 728.867 744.44 734.524 740.34 741.5C736.107 748.929 733.96 757.357 734.122 765.9C734.094 772.132 735.227 778.315 737.465 784.133L737.398 791.833ZM818.891 787.8C815.27 793.978 809.944 798.988 803.549 802.233C796.752 805.524 789.294 807.234 781.738 807.234C774.182 807.234 766.725 805.524 759.928 802.233C753.525 798.997 748.197 793.985 744.585 787.8C740.943 781.066 739.036 773.535 739.036 765.883C739.036 758.232 740.943 750.701 744.585 743.967C748.195 737.772 753.523 732.748 759.928 729.5C766.725 726.209 774.182 724.499 781.738 724.499C789.294 724.499 796.752 726.209 803.549 729.5C809.953 732.748 815.281 737.772 818.891 743.967C822.534 750.701 824.441 758.232 824.441 765.883C824.441 773.535 822.534 781.066 818.891 787.8V787.8ZM861.109 791.567H848.039C840.019 791.918 832.067 789.95 825.142 785.9C827.892 779.593 829.271 772.777 829.187 765.9C829.383 757.396 827.294 748.994 823.136 741.567C819.038 734.589 813.017 728.932 805.788 725.267C804.227 724.471 802.62 723.77 800.975 723.167V703.9H811.772V682.767H846.368V703.9H860.708V732.633H846.368V756.267C846.296 757.077 846.389 757.893 846.642 758.667C846.895 759.44 847.302 760.154 847.838 760.767C849.245 761.827 850.997 762.326 852.752 762.167H861.008L861.109 791.567Z" fill="white"/>
<path d="M803.047 764.9C802.159 763.034 801.476 761.079 801.008 759.067C800.836 757.788 800.221 756.608 799.27 755.733L797.699 754.367C797.165 753.95 796.748 753.403 796.49 752.777C796.233 752.152 796.142 751.471 796.228 750.8C796.228 749.833 796.629 748.9 796.796 747.933C797.146 746.85 797.146 745.684 796.796 744.6C796.732 744.358 796.608 744.135 796.437 743.951C796.266 743.768 796.052 743.628 795.815 743.546C795.577 743.464 795.323 743.441 795.075 743.48C794.826 743.518 794.591 743.617 794.39 743.767L793.119 744.433C792.92 744.558 792.695 744.639 792.461 744.67C792.227 744.7 791.989 744.68 791.764 744.61C791.539 744.541 791.331 744.423 791.155 744.266C790.98 744.109 790.84 743.916 790.746 743.7C790.445 743.233 790.245 742.7 789.944 742.267C789.83 742.027 789.665 741.814 789.462 741.642C789.258 741.471 789.021 741.344 788.764 741.272C788.508 741.199 788.239 741.182 787.976 741.221C787.712 741.261 787.46 741.356 787.236 741.5C786.739 741.757 786.258 742.046 785.799 742.367C785.367 742.697 784.839 742.875 784.295 742.875C783.751 742.875 783.222 742.697 782.791 742.367L781.521 741.4C780.961 740.925 780.25 740.664 779.515 740.667C778.582 740.605 777.645 740.695 776.741 740.933C775.482 741.143 774.329 741.765 773.463 742.7C772.598 743.636 772.069 744.832 771.961 746.1C771.9 746.858 771.754 747.608 771.526 748.333C771.411 748.715 771.205 749.062 770.925 749.347C770.646 749.631 770.301 749.844 769.922 749.967C769.319 750.143 768.753 750.425 768.25 750.8C767.661 751.232 767.021 751.59 766.345 751.867C765.5 752.181 764.702 752.607 763.972 753.133C763.548 753.359 763.184 753.682 762.909 754.076C762.635 754.469 762.458 754.922 762.392 755.397C762.327 755.872 762.376 756.355 762.534 756.808C762.692 757.26 762.956 757.669 763.303 758C763.81 758.551 764.116 759.255 764.172 760C764.234 761.003 764.109 762.009 763.805 762.967C763.115 764.573 762.654 766.267 762.434 768C762.245 769.354 761.815 770.664 761.164 771.867C760.586 773.007 760.202 774.235 760.027 775.5C760 775.993 760.165 776.478 760.49 776.852C760.814 777.225 761.272 777.458 761.766 777.5C762.006 777.53 762.249 777.507 762.479 777.432C762.709 777.357 762.92 777.232 763.095 777.066C763.271 776.901 763.408 776.698 763.496 776.473C763.584 776.249 763.621 776.007 763.604 775.767C763.655 775.224 763.655 774.677 763.604 774.133C763.535 773.812 763.542 773.48 763.625 773.162C763.709 772.844 763.866 772.55 764.083 772.304C764.301 772.057 764.574 771.865 764.88 771.743C765.185 771.621 765.516 771.572 765.844 771.6C766.499 771.616 767.14 771.787 767.716 772.1C767.978 772.248 768.202 772.454 768.37 772.703C768.538 772.952 768.646 773.236 768.685 773.533C768.785 774.073 768.785 774.627 768.685 775.167C768.363 776.686 767.927 778.179 767.381 779.633C766.837 781.172 766.621 782.807 766.746 784.433C766.854 785.296 767.255 786.097 767.883 786.7C768.384 787.2 768.752 787.1 769.019 786.5C769.019 786.5 769.019 786.5 769.019 786.3C769.063 786.099 769.156 785.913 769.291 785.757C769.425 785.602 769.596 785.482 769.789 785.409C769.982 785.336 770.189 785.312 770.393 785.34C770.598 785.368 770.792 785.446 770.958 785.567C771.565 785.855 772.051 786.347 772.331 786.956C772.612 787.565 772.67 788.253 772.495 788.9C772.328 789.767 772.094 790.633 771.994 791.5C771.914 792.143 772.068 792.794 772.429 793.333C772.509 793.454 772.613 793.558 772.735 793.639C772.856 793.719 772.992 793.775 773.135 793.803C773.278 793.831 773.425 793.83 773.567 793.801C773.71 793.772 773.846 793.715 773.966 793.633C774.295 793.404 774.548 793.081 774.691 792.706C774.834 792.332 774.861 791.923 774.768 791.533C774.768 790.767 774.434 790.033 774.267 789.267C774.089 788.559 774.107 787.816 774.319 787.118C774.531 786.419 774.929 785.791 775.47 785.3C775.813 784.932 776.274 784.696 776.774 784.633C777.205 784.593 777.635 784.713 777.982 784.972C778.328 785.231 778.565 785.61 778.646 786.033C779.016 787.1 779.533 788.11 780.183 789.033C780.925 790.032 781.392 791.206 781.538 792.439C781.685 793.673 781.506 794.923 781.019 796.067C780.575 797.03 780.228 798.035 779.983 799.067C779.881 799.513 779.9 799.977 780.038 800.413C780.177 800.849 780.429 801.24 780.77 801.546C781.111 801.852 781.528 802.062 781.977 802.153C782.426 802.245 782.892 802.215 783.326 802.067C783.636 801.976 783.925 801.824 784.174 801.618C784.423 801.413 784.627 801.159 784.775 800.871C784.922 800.584 785.008 800.27 785.029 799.948C785.05 799.627 785.005 799.304 784.897 799C784.596 797.933 784.195 796.9 783.86 795.833C783.191 794.13 783.191 792.237 783.86 790.533C784.796 788.4 785.732 786.3 786.802 784.233C786.967 783.876 787.206 783.558 787.504 783.3C787.62 783.199 787.768 783.144 787.922 783.144C788.075 783.144 788.224 783.199 788.339 783.3C788.508 783.392 788.666 783.504 788.807 783.633C789.765 784.465 790.537 785.489 791.073 786.637C791.608 787.786 791.896 789.034 791.916 790.3C791.909 791.538 791.694 792.766 791.281 793.933C791.087 794.581 791.095 795.272 791.304 795.915C791.513 796.558 791.913 797.122 792.451 797.533C792.618 797.68 792.816 797.79 793.029 797.855C793.243 797.92 793.467 797.939 793.689 797.911C793.91 797.883 794.123 797.807 794.313 797.691C794.503 797.574 794.666 797.418 794.791 797.233C795.124 796.771 795.268 796.198 795.192 795.633C794.987 794.837 794.696 794.066 794.323 793.333C793.565 791.43 793.312 789.363 793.587 787.333C793.826 785.955 793.982 784.564 794.055 783.167C794.083 782.104 794.298 781.055 794.69 780.067C794.87 779.595 795.208 779.201 795.647 778.952C796.086 778.702 796.599 778.613 797.097 778.7C797.487 778.75 797.852 778.917 798.145 779.179C798.438 779.441 798.643 779.785 798.735 780.167C798.903 780.98 798.903 781.82 798.735 782.633C798.634 783.24 798.634 783.86 798.735 784.467C798.774 784.718 798.893 784.95 799.073 785.13C799.253 785.309 799.486 785.428 799.738 785.467C799.998 785.538 800.275 785.525 800.527 785.429C800.78 785.333 800.995 785.16 801.142 784.933C801.486 784.4 801.628 783.762 801.543 783.133C801.367 782.392 801.074 781.683 800.674 781.033C800.279 780.329 800.008 779.562 799.872 778.767C799.705 777.507 799.638 776.237 799.671 774.967C799.665 774.475 799.844 774 800.172 773.633C800.64 773.1 800.908 773.067 801.476 773.633L802.345 774.3C802.345 774.3 802.512 774.467 802.646 774.3C802.78 774.133 802.646 774.1 802.646 773.967C802.646 773.833 802.479 773.633 802.412 773.433L801.944 772.433C801.944 772.433 801.944 772.1 802.211 772.167C802.479 772.233 801.91 772.167 801.91 771.867C801.916 771.02 801.972 770.174 802.078 769.333C802.085 769.256 802.109 769.182 802.148 769.115C802.187 769.048 802.24 768.99 802.304 768.946C802.367 768.901 802.44 768.871 802.516 768.858C802.593 768.844 802.671 768.847 802.746 768.867H803.181C804.016 768.867 804.25 768.867 804.25 767.867C804.25 767.867 804.25 767.6 804.25 767.467C803.986 766.554 803.58 765.688 803.047 764.9V764.9Z" fill="white"/>
</g>
<defs>
<linearGradient id="paint0_linear_201:3" x1="648" y1="646.898" x2="648" y2="1594" gradientUnits="userSpaceOnUse">
<stop offset="0.266145" stop-color="#EF3B24"/>
<stop offset="1" stop-color="#AF2918"/>
</linearGradient>
<clipPath id="clip0_201:3">
<rect width="540" height="257.4" fill="white" transform="translate(378 638)"/>
</clipPath>
</defs>
</svg>
