<svg width="254" height="56" viewBox="0 0 254 56" fill="none" xmlns="http://www.w3.org/2000/svg">
<g clip-path="url(#clip0_1_2)">
<path d="M0.301758 49.8013V12.8199H0.402775L23.1958 37.6701V13.6373H28.2834V50.0033H28.1732L5.38014 25.144V49.8013H0.301758Z" fill="#1A1B1F"/>
<path d="M55.4844 23.1696V50.0033H50.6265V46.1187H50.5163C48.9092 48.8095 45.7501 50.0033 42.637 50.0033C37.3106 50.0033 32.3333 47.4687 32.3333 41.1965V23.1696H37.3198V40.471C37.3198 44.3555 40.0748 45.6045 43.1053 45.6045C47.045 45.6045 50.5163 43.226 50.5163 37.5782V23.1696H55.4844Z" fill="#1A1B1F"/>
<path d="M73.6766 27.5408H66.6789V41.2424C66.6789 44.5667 67.7166 45.5953 71.344 45.5953C72.492 45.5953 73.5756 45.3841 74.6592 45.283L73.7409 49.7921C72.4184 49.9491 71.0869 50.0166 69.7553 49.9941C68.6881 50.0336 67.6242 49.8534 66.6295 49.4647C65.6349 49.0761 64.7306 48.4872 63.9729 47.7347C63.2152 46.9821 62.6202 46.0819 62.2247 45.09C61.8293 44.098 61.6418 43.0353 61.674 41.9679V27.5408H57.5874L59.3506 23.1328H61.674V16.5208L66.6514 15.3362V23.1512H73.6491L73.6766 27.5408Z" fill="#1A1B1F"/>
<path d="M77.6438 50.0033V23.1696H82.2998V27.7612H82.4008C83.9068 24.4461 86.4414 22.0125 90.4821 22.0125H92.9616L90.8954 26.9807C86.4414 26.7235 82.6303 29.9836 82.6303 36.7701V50.0033H77.6438Z" fill="#1A1B1F"/>
<path d="M102.402 23.1696H97.434V50.0033H102.402V23.1696Z" fill="#1A1B1F"/>
<path d="M159.642 50.0033C164.647 50.0033 168.66 47.4962 168.669 42.0781C168.669 38.469 166.832 36.8987 164.472 35.8793C162.112 34.86 159.21 34.5202 157.217 33.4733C156.529 33.1728 155.946 32.6744 155.542 32.0415C155.138 31.4086 154.932 30.6699 154.949 29.9193C154.916 29.2288 155.05 28.5404 155.341 27.9134C155.632 27.2864 156.071 26.7394 156.621 26.3194C157.786 25.5129 159.18 25.1038 160.597 25.1532C162.857 25.2516 165.022 26.0906 166.759 27.5408L168.182 25.5113C165.795 23.7848 163.765 22.5726 160.753 22.5635C156.382 22.5635 152.405 25.3185 152.396 30.0662C152.396 33.4641 154.233 34.9885 156.584 36.0262C158.935 37.0639 161.855 37.4864 163.848 38.6068C164.542 38.9227 165.128 39.4341 165.536 40.0784C165.944 40.7226 166.155 41.4718 166.144 42.2342C166.173 42.9751 166.03 43.7127 165.728 44.3896C165.425 45.0665 164.97 45.6645 164.399 46.1371C163.221 47.0157 161.781 47.4689 160.312 47.4228C159.084 47.442 157.866 47.1997 156.739 46.712C155.611 46.2244 154.601 45.5025 153.774 44.5943L151.845 46.2473C152.794 47.4009 153.981 48.3349 155.326 48.985C156.67 49.635 158.14 49.9856 159.633 50.0125" fill="#1A1B1F"/>
<path d="M115.81 50.0033C120.824 50.0033 124.837 47.4962 124.837 42.0781C124.837 38.469 123 36.8987 120.64 35.8793C118.28 34.86 115.387 34.5202 113.395 33.4733C112.706 33.1722 112.123 32.6739 111.717 32.0414C111.312 31.4089 111.103 30.6704 111.117 29.9193C111.092 29.2275 111.234 28.5397 111.531 27.9146C111.828 27.2894 112.272 26.7453 112.825 26.3286C113.99 25.5208 115.385 25.1117 116.802 25.1623C119.062 25.2615 121.227 26.1004 122.964 27.55L124.396 25.5205C121.99 23.794 119.97 22.5818 116.958 22.5726C112.596 22.5726 108.61 25.3276 108.592 30.0754C108.592 33.4733 110.428 34.9977 112.788 36.0354C115.149 37.0731 118.051 37.4864 120.053 38.5608C120.746 38.8878 121.329 39.4089 121.732 40.061C122.134 40.7131 122.339 41.468 122.321 42.2342C122.348 42.9749 122.205 43.7121 121.903 44.3887C121.6 45.0654 121.146 45.6636 120.576 46.1371C119.396 47.0183 117.952 47.4717 116.48 47.4228C115.254 47.4401 114.037 47.1969 112.912 46.7093C111.786 46.2217 110.777 45.5009 109.951 44.5943L108.022 46.2473C108.972 47.3999 110.159 48.3333 111.503 48.9833C112.848 49.6332 114.317 49.9844 115.81 50.0125" fill="#1A1B1F"/>
<path d="M170.974 25.7868H174.381V42.4454C174.381 47.1289 176.879 49.7921 181.544 49.7921C182.368 49.7748 183.189 49.6825 183.996 49.5166V47.1289C183.243 47.2024 182.536 47.2024 181.81 47.2024C180.47 47.3342 179.13 46.9499 178.064 46.1279C177.625 45.6303 177.294 45.0466 177.093 44.4141C176.893 43.7817 176.826 43.1143 176.897 42.4546V25.7868H183.941V23.1971H176.897V15.1433L174.381 16.5667V23.1971H171.626L170.974 25.7868Z" fill="#1A1B1F"/>
<path d="M137.767 44.9892L132.707 56H135.37L150.936 23.2063H148.181L139.218 42.2985L128.997 23.2063H126.251L137.767 44.9892Z" fill="#1A1B1F"/>
<path d="M207.129 45.9075C204.695 48.5431 200.489 49.9757 196.623 49.9757C188.836 49.9757 183.904 43.676 183.904 36.2007C183.904 28.7255 188.955 22.5726 196.623 22.5726C204.567 22.5726 209.278 28.9367 209.223 36.4854H186.448C186.283 43.125 190.884 47.5513 196.954 47.5513C201.04 47.5513 205.219 45.632 207.056 42.1148M206.642 34.0886C206.381 31.5914 205.204 29.2794 203.339 27.5989C201.473 25.9183 199.051 24.9883 196.541 24.9883C194.03 24.9883 191.608 25.9183 189.742 27.5989C187.877 29.2794 186.7 31.5914 186.439 34.0886H206.642Z" fill="#1A1B1F"/>
<path d="M240.859 23.2063C239.771 22.7532 238.603 22.5251 237.425 22.5359C237.158 22.5359 236.91 22.5359 236.663 22.5359C234.907 22.6511 233.234 23.3235 231.887 24.4552L231.704 24.6113L231.584 24.7124C230.804 25.4007 230.133 26.2025 229.591 27.0908C228.942 25.5704 227.817 24.3011 226.386 23.4726C225.987 23.2533 225.565 23.0778 225.128 22.9492C224.241 22.6466 223.31 22.4945 222.373 22.4992C217.46 22.4992 215.118 26.5307 214.668 27.4123V22.6186L212.161 23.1512V49.7829H214.668V33.0508C214.552 30.916 215.171 28.8058 216.422 27.0725C217.085 26.3006 217.917 25.6925 218.854 25.2958C219.791 24.8991 220.807 24.7246 221.822 24.7858C222.586 24.7638 223.347 24.901 224.055 25.1887C224.763 25.4764 225.404 25.9084 225.936 26.4572C227.024 27.6266 227.608 29.177 227.562 30.7734V49.7921H230.087V33.0508C229.971 30.9175 230.587 28.8086 231.832 27.0725C232.489 26.3041 233.315 25.6985 234.246 25.3033C235.176 24.9082 236.186 24.7342 237.195 24.795C237.96 24.7705 238.722 24.9056 239.432 25.1918C240.142 25.478 240.784 25.9089 241.318 26.4572C242.394 27.6326 242.971 29.1805 242.926 30.7734V49.7921H245.451V30.1764C245.451 26.4113 243.614 24.2073 240.859 23.2063Z" fill="#1A1B1F"/>
<path d="M113.33 -0.00918803C113.33 -0.00918803 104.377 0.854046 100.134 6.81403C98.9678 8.43545 98.1775 10.2961 97.8201 12.261C97.4627 14.2259 97.5472 16.2457 98.0676 18.1738C100.699 11.9054 105.185 6.59219 110.924 2.94785C103.247 9.61495 100.878 16.7871 100.29 19.0554C102.186 18.9949 104.051 18.5512 105.771 17.751C107.491 16.9508 109.032 15.8108 110.3 14.3995C115.406 8.66907 113.303 -0.0183716 113.303 -0.0183716" fill="#1A1B1F"/>
<path d="M249.216 15.3545C249.995 15.3799 250.748 15.6343 251.383 16.0859C252.017 16.5375 252.504 17.1663 252.783 17.8935C253.062 18.6207 253.12 19.414 252.95 20.1741C252.78 20.9341 252.39 21.6272 251.828 22.1664C251.266 22.7056 250.557 23.0671 249.791 23.2055C249.024 23.3439 248.234 23.2531 247.519 22.9445C246.804 22.636 246.196 22.1233 245.771 21.4707C245.346 20.8181 245.123 20.0546 245.13 19.2758C245.134 18.7489 245.244 18.2282 245.451 17.744C245.659 17.2597 245.961 16.8216 246.34 16.455C246.718 16.0884 247.166 15.8008 247.656 15.6087C248.147 15.4166 248.671 15.324 249.198 15.3362L249.216 15.3545ZM249.161 16.1443C248.326 16.1516 247.527 16.4905 246.942 17.0864C246.356 17.6823 246.031 18.4863 246.039 19.3217C246.046 20.1571 246.385 20.9554 246.981 21.541C247.577 22.1265 248.381 22.4514 249.216 22.4441C249.625 22.4446 250.03 22.3619 250.406 22.2008C250.782 22.0398 251.121 21.8038 251.403 21.5074C251.685 21.2109 251.904 20.8602 252.045 20.4765C252.187 20.0929 252.249 19.6843 252.228 19.2758C252.242 18.8686 252.174 18.4627 252.028 18.0823C251.881 17.7019 251.661 17.3546 251.378 17.0609C251.096 16.7673 250.757 16.5333 250.383 16.3727C250.008 16.2121 249.605 16.1282 249.198 16.1259L249.161 16.1443ZM248.564 21.3329H247.646V17.4392C248.141 17.3385 248.646 17.2892 249.152 17.2922C249.63 17.2458 250.11 17.3553 250.52 17.6045C250.642 17.7069 250.739 17.8349 250.806 17.9793C250.873 18.1237 250.907 18.2811 250.906 18.4401C250.89 18.6618 250.801 18.8719 250.653 19.038C250.505 19.204 250.307 19.3166 250.089 19.3585V19.4136C250.474 19.533 250.685 19.8452 250.805 20.3319C250.843 20.654 250.943 20.9657 251.099 21.2503H250.116C249.963 20.9631 249.857 20.6529 249.804 20.3319C249.73 19.9003 249.492 19.7074 248.987 19.7074H248.555L248.564 21.3329ZM248.564 19.1197H248.996C249.501 19.1197 249.914 18.9544 249.914 18.5412C249.914 18.1279 249.648 17.9442 249.069 17.9442C248.899 17.9408 248.729 17.9593 248.564 17.9993V19.1197Z" fill="#1A1B1F"/>
</g>
<defs>
<clipPath id="clip0_1_2">
<rect width="252.928" height="56" fill="white" transform="translate(0.301758)"/>
</clipPath>
</defs>
</svg>
