<svg width="1296" height="1594" viewBox="0 0 1296 1594" fill="none" xmlns="http://www.w3.org/2000/svg">
<rect width="1296" height="1594" fill="#EF3B24"/>
<rect width="1296" height="1594" fill="url(#paint0_linear_201:10)" fill-opacity="0.2"/>
<path d="M645.367 901.756C642.464 900.234 639.561 898.714 636.646 897.225C636.483 897.138 636.324 897.043 636.17 896.94C635.587 896.562 635.442 896.528 635.2 896.706C634.922 896.915 634.918 897.153 635.043 897.861C635.077 898.04 635.107 898.218 635.124 898.39C635.262 899.755 635.434 901.118 635.602 902.481H646.745L645.367 901.756Z" fill="white"/>
<path d="M637.588 911.901L637.908 911.697C638.37 911.421 638.812 911.112 639.231 910.774C639.518 910.5 639.892 910.334 640.289 910.306C640.34 910.306 640.391 910.309 640.442 910.315C640.967 910.389 641.306 910.802 641.541 911.155C642.675 912.854 643.853 914.553 645.166 916.396C645.339 916.609 645.539 916.799 645.76 916.962L645.803 917L645.86 916.974C646.034 916.902 646.201 916.817 646.361 916.719C647.53 915.937 648.694 915.144 649.852 914.338C650.62 913.806 650.65 913.785 650.077 912.955L649.192 911.671C648.266 910.323 647.339 908.973 646.38 907.65C646.18 907.372 645.924 906.947 646.023 906.453C646.121 905.958 646.514 905.671 646.804 905.494C647.322 905.175 647.819 904.818 648.317 904.463L648.621 904.246C648.92 904.033 648.986 903.883 648.984 903.844C648.982 903.804 648.918 903.664 648.623 903.466C648.476 903.372 648.324 903.287 648.167 903.211L645.374 901.752C642.471 900.23 639.568 898.711 636.654 897.221C636.49 897.135 636.331 897.039 636.177 896.936C635.595 896.559 635.449 896.525 635.207 896.702C634.929 896.912 634.925 897.15 635.05 897.857C635.084 898.037 635.114 898.214 635.131 898.386C635.301 900.085 635.509 901.762 635.725 903.449L636.118 906.674C636.308 908.32 636.512 909.968 636.756 911.608C636.803 911.924 636.903 912.073 636.973 912.105C637.043 912.137 637.24 912.126 637.588 911.901Z" fill="white"/>
<path d="M682.667 849.608H556.238C554.274 849.608 552.39 850.387 551 851.774C549.611 853.161 548.831 855.041 548.831 857.003V895.09C548.831 897.051 549.612 898.931 551.001 900.317C552.39 901.704 554.274 902.483 556.238 902.483H634.313C634.148 901.161 633.982 899.84 633.849 898.518C633.834 898.378 633.808 898.235 633.781 898.088C633.662 897.416 633.479 896.398 634.43 895.686C635.429 894.931 636.321 895.518 636.866 895.875C636.984 895.956 637.107 896.03 637.233 896.098C640.151 897.595 643.058 899.118 645.963 900.629L648.743 902.082C648.944 902.18 649.139 902.29 649.327 902.411C649.363 902.435 649.382 902.46 649.416 902.483H682.667C684.631 902.483 686.515 901.704 687.904 900.317C689.294 898.931 690.074 897.051 690.075 895.09V857.003C690.075 856.032 689.883 855.07 689.511 854.173C689.139 853.276 688.593 852.46 687.905 851.774C687.217 851.087 686.401 850.542 685.502 850.171C684.603 849.799 683.64 849.608 682.667 849.608ZM573.654 859.916C573.7 859.373 573.91 858.857 574.258 858.437C574.806 857.811 575.51 857.624 576.312 857.775C576.517 857.821 576.719 857.884 576.915 857.963L576.955 857.982L577.522 858.218C577.535 858.126 577.547 858.03 577.562 857.937C577.579 857.844 577.604 857.751 577.635 857.661C577.381 857.666 577.129 857.619 576.894 857.524C576.497 857.356 576.172 857.054 575.976 856.671C575.78 856.287 575.726 855.847 575.824 855.428C575.835 855.359 575.869 855.296 575.92 855.248C575.971 855.2 576.036 855.17 576.105 855.162C576.34 855.109 576.582 855.104 576.819 855.145C577.055 855.187 577.281 855.275 577.483 855.404C577.685 855.533 577.86 855.701 577.997 855.898C578.134 856.095 578.23 856.317 578.28 856.551C578.28 856.568 578.28 856.585 578.294 856.617L578.384 856.551C578.675 856.331 579.031 856.212 579.396 856.213C579.433 856.21 579.47 856.215 579.505 856.226C579.54 856.237 579.573 856.256 579.601 856.28C579.629 856.304 579.652 856.333 579.668 856.366C579.685 856.399 579.694 856.435 579.697 856.472C579.7 856.509 579.695 856.546 579.683 856.581C579.67 856.616 579.651 856.648 579.626 856.675C579.601 856.702 579.57 856.723 579.536 856.738C579.502 856.752 579.465 856.759 579.428 856.759C578.819 856.774 578.462 857.123 578.241 857.646C578.152 857.858 578.097 858.084 578.025 858.305L578.055 858.318C578.073 858.309 578.089 858.299 578.104 858.286C579.37 857.208 581.13 857.699 581.645 859.274C581.814 859.831 581.869 860.417 581.806 860.995C581.755 861.729 581.552 862.445 581.21 863.097C580.557 864.331 579.353 864.922 577.904 864.998C577.003 865.062 576.107 864.814 575.369 864.294C574.63 863.775 574.095 863.016 573.853 862.147C573.631 861.425 573.564 860.665 573.654 859.916V859.916ZM582.242 889.891H562.423V859.814H571.472V883.055H582.252L582.242 889.891ZM582.242 881.331H573.193V866.984H582.242V881.331ZM608.426 889.923H599.416V877.757C599.416 876.673 599.124 875.811 598.541 875.173C597.956 874.537 597.175 874.216 596.198 874.216C595.22 874.216 594.405 874.537 593.834 875.173C593.262 875.809 592.979 876.672 592.979 877.757V889.923H583.929V866.974H592.979V870.472C593.698 869.376 594.671 868.47 595.816 867.829C596.998 867.152 598.405 866.813 600.035 866.812C602.669 866.812 604.727 867.693 606.21 869.455C607.692 871.217 608.433 873.604 608.432 876.615L608.426 889.923ZM632.229 871.252L626.812 878.53L632.229 885.539V889.923H624.813L619.149 880.767V889.923H610.1V859.814H619.149V875.56L624.895 866.974H632.229V871.252ZM642.85 889.891H633.8V866.942H642.846V871.173C643.732 869.879 644.886 868.791 646.229 867.98C647.478 867.203 648.918 866.787 650.39 866.78V871.567C649.614 871.784 648.861 872.075 648.141 872.436C646.248 873.396 644.673 874.879 643.602 876.71C642.524 878.539 641.978 880.687 641.978 883.096C641.964 884.724 642.253 886.341 642.833 887.863L642.85 889.891ZM664.165 888.83C663.219 890.451 661.823 891.765 660.147 892.615C658.369 893.473 656.419 893.919 654.445 893.919C652.47 893.919 650.52 893.473 648.743 892.615C647.066 891.765 645.671 890.451 644.724 888.83C643.765 887.199 643.277 885.269 643.277 883.093C643.277 880.916 643.765 878.985 644.726 877.354C645.674 875.736 647.068 874.425 648.743 873.578C650.52 872.719 652.47 872.273 654.445 872.273C656.419 872.273 658.369 872.719 660.147 873.578C661.821 874.426 663.216 875.736 664.165 877.354C665.126 878.986 665.612 880.916 665.612 883.093C665.612 885.269 665.119 887.199 664.158 888.83H664.165ZM675.208 889.783H671.781C669.311 889.783 667.335 889.296 665.832 888.335C666.549 886.681 666.91 884.895 666.891 883.093C666.891 880.686 666.344 878.537 665.268 876.706C664.197 874.875 662.622 873.391 660.729 872.43C660.319 872.224 659.898 872.041 659.468 871.881V866.836H662.325V861.297H671.375V866.831H675.125V874.358H671.375V880.553C671.375 881.097 671.501 881.49 671.753 881.733C672.005 881.976 672.433 882.098 673.037 882.1H675.197L675.208 889.783Z" fill="white"/>
<path d="M659.038 882.668C658.844 882.266 658.696 881.844 658.598 881.409C658.55 881.143 658.417 880.9 658.219 880.716C658.11 880.614 657.992 880.516 657.879 880.419C657.764 880.33 657.673 880.212 657.618 880.077C657.562 879.943 657.543 879.796 657.561 879.651C657.586 879.441 657.644 879.241 657.682 879.034C657.748 878.796 657.736 878.543 657.648 878.312C657.635 878.26 657.609 878.211 657.572 878.171C657.535 878.13 657.489 878.099 657.438 878.081C657.387 878.062 657.332 878.056 657.278 878.064C657.224 878.071 657.172 878.092 657.128 878.124C657.036 878.171 656.939 878.229 656.854 878.273C656.81 878.299 656.762 878.315 656.711 878.32C656.661 878.326 656.61 878.321 656.561 878.306C656.513 878.291 656.468 878.265 656.431 878.232C656.393 878.198 656.362 878.157 656.341 878.111C656.281 878.009 656.232 877.899 656.169 877.801C656.145 877.75 656.11 877.704 656.066 877.667C656.023 877.631 655.972 877.604 655.917 877.588C655.862 877.573 655.805 877.569 655.749 877.577C655.692 877.586 655.639 877.606 655.591 877.637C655.483 877.693 655.379 877.756 655.279 877.825C655.184 877.893 655.069 877.928 654.953 877.924C654.836 877.92 654.724 877.878 654.634 877.805C654.539 877.737 654.445 877.663 654.358 877.593C654.234 877.496 654.082 877.44 653.925 877.433C653.723 877.424 653.521 877.444 653.325 877.491C652.758 877.633 652.364 877.98 652.3 878.611C652.285 878.773 652.252 878.934 652.2 879.088C652.176 879.171 652.132 879.246 652.072 879.307C652.011 879.368 651.936 879.413 651.854 879.438C651.725 879.48 651.605 879.544 651.498 879.626C651.37 879.721 651.231 879.801 651.084 879.862C650.903 879.93 650.731 880.02 650.573 880.13C650.195 880.425 650.101 880.81 650.43 881.18C650.54 881.299 650.607 881.452 650.619 881.614C650.635 881.83 650.608 882.047 650.541 882.252C650.426 882.611 650.263 882.953 650.248 883.342C650.206 883.632 650.112 883.913 649.97 884.17C649.848 884.417 649.766 884.682 649.726 884.954C649.721 885.061 649.757 885.166 649.828 885.248C649.898 885.329 649.997 885.38 650.104 885.39C650.156 885.396 650.209 885.391 650.259 885.375C650.308 885.358 650.354 885.331 650.391 885.295C650.429 885.259 650.459 885.214 650.477 885.166C650.496 885.117 650.504 885.065 650.5 885.012C650.497 884.894 650.487 884.776 650.471 884.659C650.456 884.59 650.458 884.518 650.475 884.45C650.493 884.381 650.527 884.317 650.574 884.264C650.621 884.211 650.68 884.169 650.746 884.143C650.811 884.117 650.883 884.106 650.953 884.112C651.094 884.116 651.23 884.155 651.353 884.223C651.41 884.254 651.46 884.298 651.497 884.352C651.533 884.406 651.556 884.468 651.562 884.533C651.579 884.65 651.575 884.77 651.551 884.886C651.479 885.212 651.386 885.533 651.273 885.847C651.153 886.178 651.106 886.532 651.135 886.883C651.157 887.07 651.243 887.244 651.379 887.374C651.485 887.478 651.568 887.461 651.623 887.325C651.623 887.312 651.623 887.299 651.638 887.284C651.648 887.241 651.669 887.201 651.698 887.168C651.727 887.135 651.764 887.11 651.805 887.094C651.846 887.078 651.891 887.073 651.934 887.078C651.978 887.084 652.02 887.1 652.056 887.125C652.188 887.19 652.293 887.298 652.354 887.432C652.415 887.565 652.427 887.716 652.389 887.857C652.342 888.044 652.306 888.233 652.281 888.424C652.26 888.562 652.293 888.704 652.374 888.818C652.39 888.845 652.412 888.868 652.438 888.886C652.463 888.904 652.493 888.916 652.524 888.922C652.554 888.928 652.586 888.927 652.617 888.92C652.647 888.913 652.676 888.899 652.701 888.881C652.773 888.833 652.829 888.763 652.859 888.683C652.89 888.602 652.895 888.513 652.873 888.429C652.847 888.266 652.812 888.105 652.767 887.946C652.729 887.793 652.733 887.632 652.779 887.481C652.826 887.33 652.912 887.195 653.03 887.089C653.101 887.009 653.2 886.957 653.306 886.944C653.399 886.935 653.492 886.961 653.567 887.016C653.642 887.071 653.694 887.153 653.713 887.244C653.79 887.477 653.902 887.696 654.046 887.895C654.205 888.11 654.305 888.362 654.335 888.627C654.366 888.892 654.326 889.161 654.22 889.405C654.125 889.613 654.053 889.83 654.004 890.053C653.982 890.147 653.986 890.245 654.014 890.338C654.042 890.43 654.095 890.513 654.166 890.579C654.237 890.644 654.324 890.69 654.419 890.711C654.513 890.732 654.611 890.728 654.704 890.699C654.771 890.679 654.833 890.647 654.887 890.603C654.941 890.558 654.986 890.504 655.018 890.442C655.05 890.38 655.069 890.313 655.075 890.243C655.08 890.174 655.071 890.104 655.048 890.038C654.98 889.808 654.895 889.585 654.821 889.356C654.678 888.988 654.678 888.58 654.821 888.212C655.023 887.755 655.22 887.297 655.453 886.853C655.492 886.777 655.545 886.708 655.61 886.651C655.632 886.627 655.663 886.613 655.696 886.61C655.728 886.607 655.761 886.616 655.787 886.636C655.822 886.658 655.856 886.682 655.888 886.708C656.096 886.889 656.264 887.113 656.379 887.364C656.493 887.616 656.553 887.889 656.553 888.165C656.554 888.431 656.509 888.696 656.421 888.947C656.372 889.086 656.371 889.237 656.417 889.377C656.462 889.517 656.553 889.639 656.674 889.723C656.71 889.754 656.753 889.777 656.799 889.791C656.844 889.805 656.893 889.809 656.94 889.803C656.988 889.797 657.033 889.781 657.074 889.756C657.115 889.731 657.15 889.698 657.177 889.658C657.213 889.609 657.239 889.553 657.253 889.494C657.267 889.435 657.269 889.373 657.259 889.313C657.214 889.14 657.151 888.973 657.07 888.815C656.903 888.404 656.847 887.957 656.907 887.518C656.96 887.221 656.995 886.922 657.011 886.621C657.017 886.393 657.061 886.169 657.143 885.956C657.183 885.854 657.256 885.769 657.351 885.715C657.446 885.661 657.557 885.642 657.665 885.66C657.749 885.671 657.828 885.707 657.891 885.764C657.955 885.82 657.999 885.895 658.019 885.977C658.064 886.149 658.074 886.328 658.045 886.504C658.015 886.634 658.005 886.767 658.015 886.9C658.024 886.955 658.051 887.005 658.09 887.043C658.129 887.082 658.18 887.107 658.235 887.116C658.29 887.132 658.35 887.13 658.405 887.109C658.459 887.089 658.506 887.051 658.537 887.002C658.614 886.888 658.644 886.749 658.622 886.613C658.583 886.455 658.519 886.303 658.433 886.164C658.345 886.012 658.281 885.847 658.244 885.675C658.21 885.402 658.197 885.127 658.204 884.852C658.205 884.747 658.244 884.646 658.312 884.567C658.414 884.45 658.473 884.444 658.598 884.54L658.777 884.684C658.796 884.697 658.819 884.714 658.843 884.699C658.868 884.684 658.86 884.65 658.843 884.625C658.826 884.601 658.811 884.55 658.794 884.512C658.762 884.439 658.728 884.367 658.696 884.293C658.679 884.254 658.679 884.221 658.753 884.237C658.721 884.208 658.685 884.204 658.688 884.17C658.687 883.987 658.697 883.805 658.721 883.623C658.727 883.59 658.745 883.561 658.772 883.542C658.8 883.523 658.833 883.516 658.866 883.521C658.898 883.521 658.93 883.521 658.963 883.532C659.138 883.544 659.191 883.493 659.191 883.315C659.194 883.286 659.194 883.257 659.191 883.228C659.166 883.035 659.115 882.847 659.038 882.668V882.668Z" fill="white"/>
<path d="M373.834 875.502C374.877 874.909 376.061 874.61 377.261 874.637C378.542 874.623 379.802 874.956 380.909 875.6C382.002 876.245 382.894 877.182 383.483 878.305C384.123 879.558 384.444 880.95 384.415 882.356C384.438 883.766 384.118 885.161 383.483 886.421C382.905 887.57 382.015 888.533 380.915 889.2C379.815 889.868 378.548 890.213 377.261 890.196C376.069 890.221 374.892 889.922 373.857 889.332C372.938 888.808 372.168 888.061 371.616 887.161V897.076H369.11V874.89H371.616V877.665C372.153 876.763 372.918 876.017 373.834 875.502V875.502ZM381.164 879.389C380.743 878.584 380.099 877.917 379.309 877.467C378.524 877.026 377.637 876.799 376.737 876.806C375.843 876.799 374.963 877.032 374.19 877.48C373.396 877.943 372.749 878.62 372.321 879.432C371.838 880.339 371.595 881.355 371.616 882.383C371.593 883.421 371.835 884.447 372.321 885.365C372.749 886.177 373.397 886.853 374.19 887.317C374.963 887.764 375.843 887.996 376.737 887.988C377.639 887.997 378.527 887.766 379.309 887.317C380.1 886.855 380.743 886.178 381.164 885.365C381.646 884.437 381.886 883.402 381.86 882.356C381.885 881.324 381.645 880.303 381.164 879.389V879.389Z" fill="white"/>
<path d="M391.008 889.224C389.865 888.592 388.929 887.643 388.313 886.493C387.639 885.229 387.302 883.814 387.331 882.383C387.303 880.959 387.651 879.552 388.339 878.305C388.972 877.156 389.921 876.213 391.074 875.587C392.271 874.964 393.601 874.639 394.951 874.639C396.301 874.639 397.631 874.964 398.828 875.587C399.981 876.21 400.934 877.147 401.576 878.288C402.263 879.54 402.609 880.951 402.578 882.379C402.608 883.816 402.253 885.235 401.549 886.489C400.889 887.64 399.922 888.586 398.754 889.221C397.554 889.868 396.208 890.2 394.843 890.183C393.503 890.202 392.181 889.871 391.008 889.224V889.224ZM397.377 887.357C398.182 886.921 398.845 886.267 399.291 885.469C399.775 884.627 400.018 883.601 400.018 882.39C400.018 881.184 399.783 880.157 399.305 879.317C398.877 878.519 398.226 877.863 397.43 877.429C396.657 877.021 395.795 876.808 394.921 876.808C394.046 876.808 393.185 877.021 392.411 877.429C391.626 877.863 390.988 878.52 390.577 879.317C390.121 880.157 389.892 881.184 389.892 882.39C389.892 883.597 390.113 884.656 390.563 885.496C390.966 886.29 391.595 886.947 392.371 887.384C393.129 887.796 393.98 888.009 394.843 888.001C395.729 888 396.601 887.776 397.377 887.35V887.357Z" fill="white"/>
<path d="M426.517 874.89L421.814 889.945H419.226L415.592 877.993L411.964 889.945H409.377L404.64 874.89H407.202L410.669 887.527L414.41 874.89H416.97L420.63 887.548L424.045 874.89H426.517Z" fill="white"/>
<path d="M443.228 883.346H431.173C431.268 884.828 431.771 885.989 432.7 886.821C433.622 887.653 434.829 888.1 436.072 888.071C437.153 888.071 438.061 887.82 438.785 887.316C439.498 886.823 440.033 886.115 440.312 885.296H443.007C442.623 886.711 441.771 887.955 440.588 888.824C439.377 889.733 437.872 890.186 436.072 890.185C434.73 890.208 433.406 889.876 432.234 889.222C431.107 888.582 430.185 887.634 429.575 886.491C428.914 885.223 428.583 883.81 428.613 882.381C428.583 880.961 428.904 879.556 429.547 878.29C430.141 877.15 431.057 876.21 432.181 875.585C433.373 874.936 434.715 874.611 436.072 874.641C437.398 874.616 438.708 874.941 439.867 875.585C440.945 876.179 441.829 877.07 442.415 878.152C443.022 879.287 443.329 880.558 443.307 881.845C443.307 882.309 443.281 882.819 443.228 883.346ZM440.09 878.854C439.68 878.177 439.083 877.633 438.369 877.288C437.62 876.924 436.797 876.74 435.964 876.751C434.77 876.724 433.61 877.156 432.726 877.958C431.844 878.767 431.335 879.885 431.2 881.312H440.722C440.747 880.45 440.528 879.598 440.09 878.854V878.854Z" fill="white"/>
<path d="M451.552 875.324C452.366 874.848 453.36 874.61 454.535 874.61V877.193H453.877C451.068 877.193 449.663 878.713 449.663 881.752V889.94H447.157V874.89H449.663V877.344C450.081 876.5 450.738 875.798 451.552 875.324V875.324Z" fill="white"/>
<path d="M471.656 883.345H459.602C459.696 884.827 460.199 885.988 461.126 886.821C462.05 887.652 463.257 888.099 464.5 888.07C465.582 888.07 466.486 887.819 467.214 887.315C467.925 886.822 468.46 886.114 468.74 885.295H471.433C471.051 886.711 470.198 887.956 469.014 888.824C467.806 889.729 466.304 890.181 464.506 890.181C463.164 890.204 461.84 889.871 460.668 889.218C459.54 888.578 458.617 887.631 458.008 886.487C457.348 885.218 457.018 883.805 457.047 882.377C457.017 880.957 457.338 879.552 457.981 878.286C458.575 877.146 459.491 876.205 460.615 875.581C461.807 874.932 463.149 874.607 464.506 874.637C465.832 874.612 467.142 874.937 468.301 875.581C469.379 876.175 470.263 877.066 470.849 878.148C471.456 879.283 471.763 880.554 471.741 881.841C471.736 882.309 471.709 882.819 471.656 883.345ZM468.517 878.854C468.108 878.177 467.511 877.632 466.798 877.287C466.049 876.924 465.225 876.74 464.392 876.751C463.198 876.723 462.039 877.155 461.154 877.957C460.272 878.767 459.763 879.885 459.628 881.312H469.149C469.174 880.45 468.955 879.598 468.517 878.854V878.854Z" fill="white"/>
<path d="M475.586 878.305C476.175 877.181 477.066 876.244 478.16 875.6C479.275 874.953 480.545 874.62 481.835 874.637C482.981 874.631 484.111 874.913 485.12 875.456C486.07 875.943 486.869 876.679 487.431 877.586V869.604H489.963V889.934H487.425V887.102C486.905 888.025 486.143 888.791 485.222 889.317C484.187 889.908 483.01 890.206 481.818 890.181C480.53 890.198 479.264 889.853 478.164 889.185C477.063 888.518 476.173 887.554 475.596 886.406C474.959 885.146 474.638 883.751 474.661 882.341C474.633 880.94 474.95 879.554 475.586 878.305V878.305ZM486.733 879.415C486.309 878.609 485.666 877.938 484.878 877.48C484.095 877.04 483.212 876.808 482.313 876.806C481.415 876.803 480.53 877.031 479.745 877.467C478.96 877.921 478.319 878.587 477.897 879.388C477.423 880.305 477.188 881.325 477.213 882.356C477.187 883.4 477.422 884.435 477.897 885.365C478.319 886.175 478.959 886.851 479.745 887.317C480.523 887.767 481.407 887.998 482.306 887.988C483.208 887.997 484.096 887.766 484.878 887.317C485.668 886.855 486.312 886.178 486.733 885.365C487.209 884.444 487.447 883.419 487.425 882.383C487.446 881.353 487.208 880.334 486.733 879.421V879.415Z" fill="white"/>
<path d="M507.407 875.488C508.44 874.91 509.608 874.616 510.792 874.637C512.078 874.619 513.345 874.952 514.455 875.6C515.544 876.246 516.43 877.183 517.014 878.305C517.656 879.558 517.977 880.949 517.948 882.356C517.972 883.767 517.651 885.161 517.014 886.421C516.437 887.57 515.547 888.533 514.447 889.201C513.346 889.869 512.08 890.214 510.792 890.196C509.594 890.222 508.411 889.928 507.365 889.345C506.442 888.831 505.676 888.076 505.149 887.161V889.934H502.643V869.604H505.149V877.68C505.692 876.761 506.471 876.004 507.407 875.488V875.488ZM514.698 879.388C514.276 878.584 513.632 877.917 512.842 877.467C512.057 877.026 511.169 876.798 510.268 876.806C509.375 876.799 508.496 877.032 507.723 877.48C506.929 877.943 506.282 878.619 505.854 879.432C505.37 880.339 505.127 881.355 505.149 882.383C505.125 883.421 505.368 884.448 505.854 885.365C506.282 886.178 506.929 886.854 507.723 887.317C508.496 887.764 509.375 887.995 510.268 887.988C511.171 887.997 512.06 887.766 512.842 887.317C513.633 886.855 514.276 886.178 514.698 885.365C515.177 884.436 515.415 883.401 515.388 882.356C515.414 881.324 515.176 880.303 514.698 879.388V879.388Z" fill="white"/>
<path d="M534.786 874.89L525.708 897.034H523.115L526.085 889.781L520.004 874.89H522.786L527.514 887.087L532.199 874.89H534.786Z" fill="white"/>
<path d="M387.621 799.21L380.082 785.561H377.966V799.21H369.144V763.049H383.952C386.807 763.049 389.247 763.549 391.255 764.544C393.264 765.539 394.769 766.906 395.772 768.639C396.776 770.404 397.293 772.404 397.269 774.434C397.3 776.744 396.584 779.001 395.227 780.872C393.869 782.76 391.867 784.099 389.221 784.889L397.578 799.21H387.621ZM377.975 779.326H383.46C385.073 779.326 386.297 778.931 387.095 778.142C387.893 777.353 388.305 776.235 388.305 774.793C388.305 773.421 387.902 772.339 387.095 771.55C386.287 770.761 385.073 770.362 383.46 770.362H377.966L377.975 779.326Z" fill="white"/>
<path d="M437.206 770.115V777.421H449.026V784.217H437.206V792.146H450.577V799.203H428.384V763.049H450.577V770.115H437.206Z" fill="white"/>
<path d="M487.881 798.283C485.883 797.499 484.142 796.179 482.85 794.468C481.589 792.784 480.929 790.757 480.868 788.387H490.256C490.396 789.73 490.859 790.751 491.654 791.453C492.448 792.155 493.473 792.508 494.744 792.508C496.054 792.508 497.089 792.21 497.842 791.606C498.594 791.002 498.976 790.175 498.976 789.108C498.988 788.697 498.914 788.288 498.759 787.907C498.604 787.526 498.372 787.181 498.076 786.894C497.43 786.284 496.679 785.797 495.86 785.454C494.637 784.957 493.387 784.529 492.117 784.17C490.154 783.594 488.237 782.871 486.383 782.008C484.875 781.26 483.567 780.165 482.566 778.812C481.499 777.408 480.966 775.571 480.968 773.302C480.968 769.935 482.189 767.3 484.63 765.395C487.071 763.491 490.253 762.538 494.177 762.537C498.169 762.537 501.385 763.49 503.822 765.395C506.259 767.301 507.567 769.953 507.746 773.353H498.201C498.135 772.186 497.706 771.268 496.911 770.598C496.117 769.929 495.103 769.594 493.868 769.594C492.8 769.594 491.941 769.876 491.289 770.441C490.636 771.008 490.307 771.827 490.307 772.896C490.307 774.062 490.858 774.972 491.96 775.626C493.062 776.279 494.782 776.983 497.119 777.738C499.066 778.37 500.969 779.127 502.817 780.003C504.308 780.744 505.607 781.818 506.615 783.141C507.682 784.513 508.214 786.281 508.213 788.446C508.235 790.428 507.689 792.376 506.641 794.06C505.586 795.744 504.063 797.083 502.072 798.078C500.081 799.072 497.725 799.568 495.003 799.565C492.357 799.565 489.978 799.142 487.881 798.283Z" fill="white"/>
<path d="M548.044 770.115V777.421H559.862V784.217H548.044V792.146H561.414V799.203H539.221V763.049H561.414V770.115H548.044Z" fill="white"/>
<path d="M615.279 792.822H601.761L599.597 799.21H590.359L603.469 763.049H613.681L626.789 799.21H617.45L615.279 792.822ZM613.01 786.026L608.52 772.786L604.087 786.026H613.01Z" fill="white"/>
<path d="M674.837 799.21L667.299 785.561H665.182V799.21H656.36V763.049H671.168C674.024 763.049 676.463 763.549 678.472 764.544C680.48 765.539 681.993 766.906 682.988 768.639C683.992 770.404 684.509 772.404 684.486 774.434C684.517 776.744 683.8 779.001 682.443 780.872C681.085 782.76 679.083 784.099 676.437 784.889L684.794 799.21H674.837ZM665.182 779.326H670.667C672.28 779.326 673.504 778.931 674.302 778.142C675.1 777.353 675.512 776.235 675.512 774.793C675.512 773.421 675.109 772.339 674.302 771.55C673.494 770.761 672.28 770.362 670.667 770.362H665.182V779.326Z" fill="white"/>
<path d="M716.413 771.523C717.91 768.775 720.156 766.507 722.891 764.98C725.664 763.417 728.802 762.635 732.305 762.635C736.604 762.635 740.286 763.768 743.35 766.033C746.413 768.299 748.46 771.389 749.49 775.305H739.788C739.137 773.872 738.067 772.669 736.719 771.854C735.351 771.052 733.789 770.642 732.203 770.67C729.49 770.67 727.288 771.614 725.599 773.502C723.909 775.389 723.067 777.914 723.072 781.074C723.072 784.237 723.914 786.761 725.599 788.646C727.283 790.531 729.485 791.475 732.203 791.478C733.788 791.503 735.351 791.094 736.719 790.294C738.067 789.478 739.136 788.275 739.788 786.843H749.49C748.456 790.756 746.41 793.839 743.35 796.093C740.29 798.347 736.608 799.472 732.305 799.467C728.796 799.467 725.658 798.686 722.891 797.124C720.161 795.602 717.916 793.344 716.413 790.607C714.867 787.825 714.093 784.648 714.089 781.078C714.085 777.507 714.86 774.322 716.413 771.523Z" fill="white"/>
<path d="M811.885 763.049V799.21H803.057V784.323H789.328V799.21H780.508V763.049H789.328V777.208H803.057V763.049H811.885Z" fill="white"/>
<path d="M678.791 621.287C675.962 618.58 674.549 615.209 674.551 611.176C674.554 607.142 675.967 603.77 678.791 601.061C681.619 598.354 685.169 597 689.441 597C693.712 597 697.262 598.354 700.09 601.061C702.919 603.772 704.335 607.143 704.336 611.176C704.337 615.208 702.922 618.579 700.09 621.287C697.261 623.997 693.711 625.352 689.441 625.352C685.17 625.352 681.621 623.997 678.791 621.287ZM701.393 636.767V732.526H677.144V636.76L701.393 636.767Z" fill="white"/>
<path d="M801.317 646.18C808.357 653.383 811.878 663.437 811.879 676.344V732.526H787.638V679.631C787.638 672.021 785.731 666.169 781.919 662.074C778.106 657.978 772.913 655.936 766.341 655.948C759.648 655.948 754.367 657.992 750.496 662.081C746.626 666.17 744.693 672.023 744.698 679.638V732.526H720.439V636.76H744.688V648.687C747.92 644.534 752.048 641.278 757.072 638.919C762.096 636.561 767.608 635.379 773.607 635.374C785.037 635.374 794.274 638.976 801.317 646.18Z" fill="white"/>
<path d="M889.77 639.439C895.191 642.263 899.462 645.921 902.583 650.414V636.76H927V733.217C927 742.09 925.211 750.013 921.631 756.987C918.052 763.96 912.686 769.491 905.533 773.579C898.372 777.672 889.713 779.718 879.558 779.716C865.931 779.716 854.761 776.547 846.049 770.209C837.337 763.871 832.401 755.228 831.241 744.28H855.316C856.586 748.66 859.327 752.146 863.539 754.74C867.751 757.334 872.858 758.63 878.858 758.629C885.899 758.629 891.613 756.525 895.998 752.318C900.383 748.111 902.578 741.744 902.583 733.217V718.35C899.464 722.846 895.164 726.592 889.683 729.589C884.202 732.585 877.937 734.083 870.888 734.082C862.805 734.082 855.417 732.005 848.723 727.852C842.03 723.699 836.748 717.85 832.879 710.306C829.01 702.755 827.077 694.083 827.081 684.29C827.081 674.61 829.013 666.025 832.879 658.534C836.745 651.043 841.997 645.281 848.636 641.247C855.275 637.22 862.692 635.206 870.888 635.206C878.045 635.205 884.339 636.616 889.77 639.439ZM899.116 669.518C896.804 665.311 893.689 662.084 889.77 659.835C885.928 657.613 881.564 656.45 877.124 656.467C872.748 656.434 868.442 657.569 864.653 659.754C860.844 661.944 857.755 665.14 855.386 669.344C853.017 673.547 851.832 678.532 851.831 684.297C851.831 690.063 853.016 695.105 855.386 699.425C857.756 703.744 860.872 707.057 864.732 709.364C868.463 711.631 872.747 712.828 877.114 712.823C881.555 712.839 885.92 711.675 889.761 709.449C893.685 707.203 896.801 703.976 899.107 699.77C901.413 695.564 902.568 690.522 902.573 684.643C902.58 678.767 901.427 673.725 899.116 669.518Z" fill="white"/>
<path d="M405.457 639.697C410.476 636.82 416.219 635.379 422.685 635.374V660.788H416.28C408.661 660.788 402.916 662.574 399.045 666.146C395.175 669.718 393.242 675.941 393.247 684.815V732.526H369V636.76H393.249V651.626C396.366 646.556 400.435 642.579 405.457 639.697Z" fill="white"/>
<path d="M453.686 727.944C446.295 723.857 440.496 718.067 436.287 710.576C432.078 703.085 429.97 694.44 429.961 684.641C429.961 674.848 432.127 666.205 436.459 658.712C440.791 651.218 446.708 645.429 454.21 641.343C461.708 637.252 470.078 635.207 479.319 635.208C488.561 635.209 496.931 637.254 504.429 641.343C511.933 645.436 517.85 651.226 522.18 658.712C526.509 666.198 528.673 674.841 528.67 684.641C528.67 694.441 526.449 703.085 522.006 710.571C517.563 718.056 511.56 723.846 503.998 727.939C496.433 732.031 487.976 734.077 478.627 734.076C469.389 734.08 461.076 732.036 453.686 727.944ZM491.011 709.797C494.875 707.663 497.964 704.465 500.278 700.201C502.591 695.937 503.747 690.75 503.744 684.641C503.744 675.539 501.349 668.538 496.558 663.639C491.767 658.739 485.908 656.291 478.981 656.293C472.054 656.293 466.254 658.742 461.582 663.639C456.909 668.536 454.57 675.537 454.565 684.641C454.565 693.747 456.846 700.747 461.406 705.643C465.966 710.539 471.711 712.989 478.64 712.993C482.97 713.003 487.23 711.903 491.011 709.797V709.797Z" fill="white"/>
<path d="M659.369 656.639V636.76H637.894V613.077H613.477V636.76H570.711V613.077H546.296V636.76H534.858V656.639H546.288V702.792C546.288 722.616 556.505 732.527 576.939 732.526H592.178V712.126H580.924C577.228 712.126 574.601 711.406 573.043 709.966C571.485 708.526 570.705 706.192 570.704 702.964V656.639H613.469V702.792C613.469 722.616 623.687 732.527 644.122 732.526H659.361V712.126H648.107C644.411 712.126 641.784 711.406 640.226 709.966C638.668 708.526 637.888 706.192 637.887 702.964V656.639H659.369Z" fill="white"/>
<defs>
<linearGradient id="paint0_linear_201:10" x1="648" y1="646.898" x2="648" y2="1594" gradientUnits="userSpaceOnUse">
<stop offset="0.266145" stop-color="#EF3B24"/>
<stop offset="1" stop-color="#AF2918"/>
</linearGradient>
</defs>
</svg>
