<svg width="176" height="72" viewBox="0 0 176 72" fill="none" xmlns="http://www.w3.org/2000/svg">
<g clip-path="url(#clip0_1_16)">
<path d="M175.698 0.0877991H0.0878029V72.0878H175.698V0.0877991Z" fill="black"/>
<path d="M31.639 27.9805H35.5024C39.2781 27.9805 40.7122 29.1512 40.7122 31.1122C40.7122 33.0732 39.2781 34.2439 35.5024 34.2439H31.639V27.9805ZM35.8537 47.561V43.9902H33.1024L31.639 42.5268V37.8146H34.0683L39.0146 43.9902V47.561H47.3854V43.8146H44.0195L38.8976 37.522C42.8781 36.8195 44.9561 34.6537 44.9561 31.1122C44.9561 26.7805 41.7366 24.4098 35.5902 24.4098H24.8781V27.9805H26.4293L27.8927 29.4439V42.5268L26.4293 43.9902H24.8781V47.561H35.8537ZM72.2341 43.961L64.8 35.7073L71.9122 27.9805H73.2878V24.4098H63.9512V27.9805H65.7366L66.7024 28.6829L62.5756 33.0146L58.6244 28.6829L59.5902 27.9805H61.3756V24.4098H51.6V27.9805H52.9756L60 36.0293L52.6537 43.9902H50.3707V47.561H60.2927V43.9902H58.8293L57.8634 43.2878L62.3415 38.6634L66.6146 43.2878L65.6488 43.9902H64.1854V47.561H74.5463V43.9902H72.2341V43.961ZM85.9024 37.2878H90.0293C93.8341 37.2878 95.4732 38.5463 95.4732 40.6244C95.4732 42.7024 93.8634 43.9902 90.0293 43.9902H85.9024V37.2878ZM89.561 33.8634H85.9024V27.9805H89.561C93.0146 27.9805 94.5073 29.0634 94.5073 30.8488C94.5073 32.722 93.0146 33.8634 89.561 33.8634ZM94.8293 35.2976C97.4341 34.7707 98.5756 32.7805 98.5756 30.8781C98.5756 26.7512 95.5024 24.439 89.678 24.439H77.7073V28.0098H80.6634L82.1268 29.4732V42.5561L80.6634 44.0195H77.7073V47.5902H90.1463C96.2634 47.5902 99.5707 45.2488 99.5707 40.6537C99.5415 38.3415 97.2878 35.5024 94.8293 35.2976ZM116.517 36.4683H110.956L113.707 28.4781L116.517 36.4683ZM112.01 43.961H110.224L108.761 42.7902L109.727 40.039H117.776L118.741 42.7902L117.278 43.961H115.493V47.5317H125.971V43.961H123.454L116.195 24.4098H111.659L104.4 43.961H101.854V47.5317H112.01V43.961ZM134.576 27.9805H138.439C142.215 27.9805 143.62 29.1512 143.62 31.1122C143.62 33.0732 142.185 34.2439 138.439 34.2439H134.576V27.9805ZM138.79 47.561V43.9902H136.039L134.576 42.5268V37.8146H137.005L141.951 43.9902V47.561H150.322V43.8146H146.956L141.834 37.522C145.815 36.8195 147.893 34.6537 147.893 31.1122C147.893 26.7805 144.673 24.4098 138.527 24.4098H127.815V27.9805H129.366L130.829 29.4439V42.5268L129.366 43.9902H127.815V47.561H138.79ZM152.517 21.5415C152.517 23.3854 154.01 24.9073 155.854 24.9073C157.698 24.9073 159.19 23.3854 159.19 21.5415C159.19 19.6976 157.698 18.1756 155.854 18.1756C154.01 18.2049 152.517 19.6976 152.517 21.5415ZM152.985 21.5415C152.985 19.961 154.302 18.6439 155.854 18.6439C157.405 18.6439 158.751 19.961 158.751 21.5415C158.751 23.122 157.434 24.439 155.854 24.439C154.302 24.439 152.985 23.122 152.985 21.5415ZM155.356 20.5463H155.854C156.322 20.5463 156.527 20.6927 156.527 20.9561C156.527 21.1902 156.351 21.3659 155.854 21.3659H155.356V20.5463ZM155.912 23.0341V22.5659H155.561L155.385 22.3902V21.7756H155.707L156.351 22.5659V23.0341H157.405V22.5659H156.966L156.322 21.7756C156.82 21.6878 157.083 21.3951 157.083 20.9561C157.083 20.4 156.673 20.1073 155.883 20.1073H154.507V20.5756H154.712L154.888 20.7512V22.4195L154.712 22.5951H154.507V23.0634H155.912V23.0341Z" fill="white"/>
</g>
<defs>
<clipPath id="clip0_1_16">
<rect width="175.61" height="72" fill="white"/>
</clipPath>
</defs>
</svg>
