<svg width="73" height="72" viewBox="0 0 73 72" fill="none" xmlns="http://www.w3.org/2000/svg">
<g clip-path="url(#clip0_1_37)">
<path fill-rule="evenodd" clip-rule="evenodd" d="M69.4752 49.8321C65.8411 58.6343 58.842 65.6222 50.0259 69.2506C31.7206 76.8433 10.6561 68.1755 3.05136 49.8321H69.4752ZM68.3311 58.6343V58.8358H67.7928V60.3813H67.5909L67.5236 58.8358H66.9852V58.6343H68.3311ZM68.8695 58.6343L69.4079 60.1125L69.9463 58.6343H70.2828V60.3813H70.0809V58.903L69.5425 60.3813H69.3406L68.8022 58.903V60.3813H68.6003L68.533 58.6343H68.8695ZM69.6098 22.3505C71.4269 26.7852 72.3018 31.4886 72.3018 36.1921C72.2345 40.0892 71.6288 43.9192 70.4174 47.5476H2.24378C-0.582767 39.3501 -0.313574 30.4136 2.98406 22.3505H69.6098ZM14.3576 28.5322C11.6656 28.5322 9.84854 29.9432 9.84854 32.1606C9.84854 34.3779 11.3291 35.3858 13.4827 36.1249C15.4343 36.7968 16.04 37.3343 16.04 38.2078C16.04 38.947 15.2997 39.2829 14.694 39.4173C14.2903 39.4845 13.8865 39.5517 13.4827 39.5517C12.3386 39.4845 11.1945 39.2157 10.185 38.6782L9.98314 38.611V41.0971H10.0504C11.1945 41.5675 12.4732 41.8362 13.7519 41.8362C16.6457 41.8362 18.3282 40.4924 18.3282 38.1407C18.3282 35.9905 16.8476 34.9826 14.694 34.1763C12.877 33.5044 12.204 32.9669 12.204 32.0934C12.204 31.2199 13.1462 30.6823 14.4922 30.6823C15.5016 30.6823 16.5111 30.9511 17.4533 31.4214L17.6552 31.5558V29.2041H17.5879C16.5784 28.7338 15.5016 28.5322 14.3576 28.5322ZM62.678 28.8009H60.2553V38.611C60.188 39.2829 59.5823 39.7533 58.9093 39.6861C58.4382 39.6861 57.9671 39.5517 57.5633 39.3501L57.3614 39.2157V41.4331H57.4287C57.9671 41.7018 58.5055 41.8362 59.1112 41.8362C61.534 41.8362 62.678 40.5596 62.678 38.0735V28.8009ZM37.1718 28.7338H37.1045V41.5003H39.2581V33.6388C39.46 33.7732 39.6619 33.9747 39.8638 34.1763L47.1993 41.6346L47.2666 28.9353H45.1131V36.864L44.5074 36.2593L37.1718 28.7338ZM27.2116 28.5322H27.0097L20.9528 41.5003H23.5775V41.4331C23.5775 41.3964 24.3984 39.4806 25.2758 37.4521L25.6059 36.6896C26.2289 35.2524 26.8323 33.8694 27.1443 33.1684C27.4135 33.9076 28.0192 35.3186 28.6249 36.7968H27.4135L26.5386 38.7454H29.4998C30.1116 40.1503 30.6121 41.2776 30.6981 41.4709L30.7111 41.5003H33.2685L31.9225 38.611L32.7301 36.7296H31.0476L27.2116 28.5994V28.5322ZM56.1501 34.9826H50.8335L49.9586 36.9312H55.2752L56.1501 34.9826ZM20.4817 3.67109C38.3159 -5.06389 59.8515 2.32725 68.6003 20.1332H3.99355C7.49308 12.9436 13.2808 7.16508 20.4817 3.67109Z" fill="#1A1B1F"/>
</g>
<defs>
<clipPath id="clip0_1_37">
<rect width="72" height="72" fill="white" transform="translate(0.301758)"/>
</clipPath>
</defs>
</svg>
