<svg width="435" height="64" viewBox="0 0 435 64" fill="none" xmlns="http://www.w3.org/2000/svg">
<path fill-rule="evenodd" clip-rule="evenodd" d="M78.8493 34.6626L78.7929 34.6337C76.7137 33.5701 74.7944 32.5884 74.7944 30.1191C74.7944 27.9206 76.1134 26.5527 78.1165 26.5527C80.1195 26.5527 81.3898 27.6763 81.7318 29.6794L81.7806 29.826H82.8066L82.2692 25.7221H82.1226C81.8295 25.6733 81.5363 25.6244 81.2921 25.5756C80.4127 25.429 79.4356 25.2824 78.5073 25.2824C74.5012 25.2824 72.0096 27.5786 72.0096 31.2427C72.0096 34.9069 74.5989 36.3725 76.8463 37.545C78.8493 38.571 80.7058 39.5481 80.7058 42.0397C80.7058 44.1893 79.0936 45.7527 76.8463 45.7527C74.4524 45.7527 72.9379 43.6519 72.4493 41.5511L72.4005 41.4046H71.3745L72.0096 45.9969L72.1073 46.0458C73.5241 46.6809 75.1363 47.0718 76.6997 47.0718C80.1195 47.0718 83.7837 44.9221 83.7837 40.916C83.8325 37.1542 81.1944 35.8351 78.8493 34.6626ZM98.7821 43.7985L94.2875 31.145L91.6982 32.1221L91.747 32.3176C91.747 32.3664 91.7592 32.4153 91.7714 32.4641C91.7837 32.513 91.7959 32.5618 91.7959 32.6107C91.7959 32.855 91.6493 33.1969 91.5027 33.4901L87.3012 44.2382C87.0569 44.8244 86.6661 45.3618 85.2982 45.3618H85.1027V46.4855H85.2982C86.0798 46.4366 86.9592 46.4366 87.692 46.4366H87.6921C88.2113 46.4366 88.718 46.4492 89.2186 46.4615C89.707 46.4736 90.1896 46.4855 90.6722 46.4855H90.8676V45.3618H90.3302C90.0371 45.3618 88.9623 45.313 88.9623 44.7267C88.9623 44.3359 89.2066 43.603 89.3531 43.1634C89.3718 43.1074 89.3905 43.0585 89.4064 43.0168C89.4322 42.9493 89.4508 42.9004 89.4508 42.8702L90.0371 41.0626H94.776L95.802 43.8962C95.8261 43.9604 95.8488 44.0193 95.87 44.0742L95.87 44.0742C95.978 44.3538 96.0463 44.5306 96.0463 44.7756C96.0463 45.1176 95.3623 45.313 94.776 45.313H94.434V45.5084H94.2386V46.4366H94.434C95.46 46.3878 96.5837 46.3878 97.7073 46.3878C98.2754 46.3878 98.806 46.4003 99.3307 46.4126H99.3308H99.3308H99.3308H99.3308H99.3308H99.3308H99.3308H99.3308H99.3308H99.3308H99.3309H99.3309H99.3309H99.3309H99.3309H99.3309H99.3309H99.3309H99.3309H99.3309H99.3309C99.8441 46.4247 100.352 46.4366 100.883 46.4366H101.176V45.313H100.981C99.6127 45.4107 99.2218 45.0687 98.7821 43.7985ZM94.434 39.8412H90.6234L92.5287 34.5649L94.434 39.8412ZM105.033 31.8037C105.62 31.8162 106.22 31.829 106.794 31.829H106.794C107.967 31.829 109.188 31.829 110.312 31.7802H110.507V32.9038H110.312C108.749 32.9038 108.309 33.1481 108.309 34.0275V44.3359C108.309 45.2153 108.749 45.4595 110.312 45.4595H110.458V46.5832H110.263C109.701 46.5832 109.115 46.571 108.529 46.5588L108.529 46.5588C107.942 46.5466 107.356 46.5343 106.794 46.5343H106.794C105.671 46.5343 104.449 46.5343 103.423 46.5832H103.228V45.4595H103.423C104.987 45.4595 105.426 45.2153 105.426 44.3359V34.0275C105.426 33.1481 104.987 32.9038 103.423 32.9038H103.228V31.7802H103.423C103.925 31.7802 104.473 31.7918 105.033 31.8037ZM127.362 31.829C126.867 31.829 126.36 31.8165 125.859 31.8041C125.371 31.7921 124.889 31.7802 124.431 31.7802H124.236V32.9038H124.431C125.945 32.9038 126.581 32.9038 126.581 34.7603V41.9908L117.884 31.7802H117.787C116.956 31.829 116.321 31.829 115.833 31.829H115.833C115.521 31.829 115.209 31.8172 114.892 31.8053C114.562 31.7928 114.227 31.7802 113.878 31.7802H113.585V32.9038H113.781C114.758 32.9038 115.93 33.0992 115.93 34.1252V42.284C115.93 44.4336 115.93 45.4107 113.683 45.4107H113.487V46.5343H113.683C114.66 46.4855 115.686 46.4855 116.663 46.4855H116.663C117.189 46.4855 117.74 46.4983 118.278 46.5108C118.789 46.5227 119.288 46.5343 119.741 46.5343H119.936V45.4107H119.741C117.64 45.4107 117.445 44.971 117.445 42.9679V35.5908L127.118 46.8763H128.095V34.2718C128.095 33.0015 128.535 32.9038 129.952 32.9038H130.147V31.7802H129.952C129.219 31.829 128.242 31.829 127.362 31.829H127.362ZM142.996 31.7801C143.68 31.7801 143.924 31.7801 144.413 31.145L144.462 30.9985H145.341L144.999 35.2489H143.875V35.1023C143.729 33.1969 143.484 33.0504 142.458 33.0504H139.723V44.287C139.723 45.1664 140.162 45.4107 141.872 45.4107H142.068V46.5343H141.774C141.151 46.5343 140.528 46.5216 139.917 46.5092L139.917 46.5092C139.332 46.4972 138.758 46.4855 138.208 46.4855H138.208C137.231 46.4855 136.205 46.4855 135.081 46.5343H134.495V45.4107H134.691C136.352 45.4107 136.84 45.1664 136.84 44.287V33.0504H134.788C133.078 33.0504 132.785 33.1969 132.297 35.1511L132.248 35.2977H131.124L131.564 31.0473H132.492V31.2427C132.492 31.7313 133.274 31.7801 133.616 31.7801H142.996ZM157.262 25.6733H156.968V26.7969H157.164L157.233 26.7991C158.755 26.8462 159.655 26.8741 159.655 28.7511V45.7038C159.655 48.0489 159.655 51.5664 157.506 51.5664C156.822 51.5664 156.089 51.2244 156.089 50.4916C156.089 49.6611 155.503 49.2702 154.965 49.2702C154.623 49.2702 154.233 49.3679 153.988 49.6611C153.793 49.8565 153.549 50.1985 153.549 50.7847C153.549 52.3481 155.258 52.9344 156.773 52.9344C158.678 52.9344 160.681 51.8595 161.512 50.3939L161.559 50.308C162.317 48.9361 162.88 47.9175 162.88 43.945V28.7511C162.88 26.8741 163.781 26.8462 165.302 26.7991L165.371 26.7969H165.567V25.6733H165.029C162.342 25.7221 159.949 25.7221 157.262 25.6733ZM167.57 39.1084C167.57 34.1252 171.918 31.4382 176.022 31.4382C180.81 31.4382 184.083 34.5649 184.083 39.1084C184.083 42.8702 180.761 46.9252 175.826 46.9252C170.892 46.9252 167.57 43.7496 167.57 39.1084ZM176.168 45.5573C180.419 45.5573 180.859 41.2092 180.859 39.3527C180.859 35.4443 178.709 32.7573 175.582 32.7084C172.113 32.7084 170.843 35.8351 170.843 38.7664C170.843 42.5771 173.188 45.5573 176.168 45.5573ZM193.219 37.9359C190.434 36.5679 190.043 36.0794 190.043 34.7603C190.043 33.4412 191.02 32.6107 192.437 32.6107C194.294 32.6107 194.88 33.8321 195.173 34.9069L195.222 35.0534H196.199L195.906 31.829H195.759C195.32 31.829 194.831 31.7801 194.294 31.6824C193.61 31.5847 192.926 31.5359 192.291 31.5359C189.506 31.5359 187.796 33.5878 187.796 35.542C187.796 37.9359 188.724 39.1084 191.997 40.7695C193.903 41.7466 194.538 42.4794 194.538 43.6031C194.538 43.9939 194.391 45.8504 191.949 45.8504C190.043 45.8504 189.115 45.0198 188.48 42.8214L188.431 42.6748H187.405L187.894 46.0947L187.991 46.1435C189.164 46.6809 190.385 46.974 191.704 46.974C194.831 46.974 197.078 45.2153 197.078 42.7725C197.029 40.8183 196.394 39.4992 193.219 37.9359ZM208.364 45.2641C211.197 45.2641 211.393 44.971 212.516 43.0656L212.614 42.9679H213.689L212.663 46.5832H212.468C211.448 46.5832 210.417 46.5711 209.379 46.559L209.378 46.559L209.378 46.559H209.378H209.378H209.378H209.378H209.378L209.377 46.559C208.327 46.5467 207.271 46.5343 206.214 46.5343H206.214C204.309 46.5343 202.306 46.5343 200.547 46.5832H200.352V45.4595H200.547C202.11 45.4595 202.55 45.2153 202.55 44.3359V34.0275C202.55 33.1481 202.11 32.9038 200.547 32.9038H200.352V31.7802H200.547C201.176 31.7802 201.829 31.7921 202.488 31.8042C203.16 31.8166 203.839 31.829 204.504 31.829H204.504C206.996 31.829 209.488 31.829 211.735 31.7802H211.93L212.126 35.2489H211.149L211.1 35.1023C210.758 33.2947 210.416 33.0992 207.387 33.0992H205.384V38.2779H207.631C209.097 38.2779 209.585 38.2779 209.585 36.4214V36.226H210.709V36.4214C210.709 36.8427 210.696 37.2389 210.684 37.629L210.684 37.6297C210.672 38.0084 210.66 38.3815 210.66 38.7664V38.7671C210.66 39.5486 210.66 40.4277 210.709 41.2092V41.4046H209.585V41.2092C209.585 39.6947 209.292 39.5969 207.631 39.5969H205.384V43.7008C205.384 44.7756 205.823 45.2641 208.364 45.2641ZM224.095 31.7802C223.265 31.7802 222.532 31.7802 221.799 31.829C221.481 31.829 221.164 31.8412 220.846 31.8534C220.529 31.8656 220.211 31.8779 219.894 31.8779C219.319 31.8779 218.719 31.8651 218.132 31.8526C217.572 31.8407 217.024 31.829 216.523 31.829H216.327V32.9527H216.523C217.939 32.9527 218.428 33.1481 218.526 33.8809V44.3359C218.526 45.2153 218.086 45.4595 216.523 45.4595H216.327V46.5832H216.523C217.549 46.5343 218.77 46.5343 219.894 46.5343C220.455 46.5343 221.042 46.5466 221.628 46.5588L221.628 46.5588C222.214 46.571 222.8 46.5832 223.362 46.5832H223.558V45.4595H223.362C221.799 45.4595 221.359 45.2153 221.359 44.3359V33.0015C221.604 32.9527 221.946 32.9527 222.385 32.9527C224.633 32.9527 225.805 34.1252 225.805 36.4214C225.805 38.4244 225.023 39.3527 223.362 39.3527C223.289 39.3527 223.191 39.3405 223.094 39.3282C222.996 39.316 222.898 39.3038 222.825 39.3038C222.732 39.3038 222.659 39.2842 222.605 39.2698C222.574 39.2615 222.55 39.255 222.532 39.255H222.336V40.3298L222.483 40.3786C222.511 40.3786 222.56 40.3868 222.629 40.3985C222.799 40.4271 223.093 40.4763 223.509 40.4763C225.561 40.4763 228.834 39.255 228.834 35.9817C228.834 33.2947 227.173 31.7802 224.095 31.7802ZM243.674 31.8042C244.26 31.8165 244.852 31.829 245.445 31.829C246.617 31.829 247.79 31.829 248.816 31.7802H249.011V32.9038H248.816C247.252 32.9038 246.813 33.1481 246.813 34.0275V44.3359C246.813 45.2153 247.252 45.4595 248.816 45.4595H249.011V46.5832H248.816C248.314 46.5832 247.766 46.5715 247.206 46.5596C246.619 46.5471 246.019 46.5343 245.445 46.5343C244.321 46.5343 243.1 46.5343 241.976 46.5832H241.781V45.4595H241.976C243.344 45.4595 243.979 45.313 243.979 44.3359V39.5969H236.309V44.3359C236.309 45.3618 236.944 45.4595 238.312 45.4595H238.507V46.5832H238.312C237.75 46.5832 237.164 46.571 236.578 46.5588L236.577 46.5588C235.991 46.5466 235.405 46.5343 234.843 46.5343C233.72 46.5343 232.498 46.5343 231.472 46.5832H231.277V45.4595H231.472C233.036 45.4595 233.475 45.2153 233.475 44.3359V34.0275C233.475 33.1481 233.036 32.9038 231.472 32.9038H231.277V31.7802H231.472C231.974 31.7802 232.521 31.7918 233.082 31.8037C233.668 31.8162 234.269 31.829 234.843 31.829C235.967 31.829 237.188 31.829 238.312 31.7802H238.507V32.9038H238.312C236.944 32.9038 236.309 33.0504 236.309 34.0275V38.2779H243.979V34.0275C243.979 33.0015 243.344 32.9038 241.976 32.9038H241.781V31.7802H241.976C242.532 31.7802 243.1 31.7921 243.674 31.8042ZM252.968 25.6733C251.747 25.6733 250.965 26.3084 250.965 27.3832C250.965 28.8977 251.845 29.0931 252.626 29.0931C253.359 29.0931 253.897 29.1908 253.897 30.1679C253.897 31.3893 252.968 32.2687 251.21 32.855L251.014 32.9038L251.454 33.9298L251.6 33.8809C254.287 33.0992 255.802 31.3405 255.802 29.0443C255.9 27.4321 254.971 25.6733 252.968 25.6733ZM259.564 34.7603C259.564 36.0794 259.955 36.5679 262.739 37.9359C265.915 39.4992 266.501 40.8183 266.599 42.7725C266.599 45.2153 264.352 46.974 261.225 46.974C259.906 46.974 258.684 46.6809 257.512 46.1435L257.414 46.0947L256.926 42.6748H257.952L258 42.8214C258.636 45.0198 259.564 45.8504 261.469 45.8504C263.912 45.8504 264.058 43.9939 264.058 43.6031C264.058 42.4794 263.423 41.7466 261.518 40.7695C258.245 39.1084 257.317 37.9359 257.317 35.542C257.317 33.5878 259.026 31.5359 261.811 31.5359C262.446 31.5359 263.13 31.5847 263.814 31.6824C264.352 31.7801 264.84 31.829 265.28 31.829H265.426L265.72 35.0534H264.742L264.694 34.9069C264.4 33.8321 263.814 32.6107 261.958 32.6107C260.541 32.6107 259.564 33.4412 259.564 34.7603ZM296.84 25.6733C295.13 25.7221 293.371 25.6733 291.662 25.6244H291.466V26.7481H291.808L291.811 26.7482C294.251 26.8458 294.3 26.8478 294.3 31.3893V39.7435C294.3 43.4565 292.541 45.3618 289.121 45.3618C285.457 45.3618 283.552 43.1145 283.552 38.6687V28.7511C283.552 26.8741 284.452 26.8462 285.974 26.7991L286.043 26.7969H286.239V25.6733H285.701C282.965 25.7221 280.571 25.7221 277.884 25.6733H277.591V26.7969H277.787L277.856 26.7991C279.377 26.8462 280.278 26.8741 280.278 28.7511V39.4992C280.376 44.4336 283.161 47.0229 288.291 47.0229C293.42 47.0229 296.156 44.3359 296.156 39.8412V31.2427C296.156 29.5328 296.156 28.4092 296.449 27.7252C296.694 27.0901 297.231 26.8458 298.306 26.8458H298.501V25.7221H298.306C297.817 25.6733 297.329 25.6733 296.84 25.6733ZM312.241 31.8041C312.742 31.8165 313.249 31.829 313.744 31.829C314.574 31.829 315.503 31.829 316.431 31.7802H316.626V32.9038H316.431C315.014 32.9038 314.575 33.0015 314.575 34.2718V46.8275H313.597L313.549 46.7786L303.924 35.5908V42.9679C303.924 44.971 304.12 45.4107 306.22 45.4107H306.318V46.5343H306.123C305.67 46.5343 305.171 46.5227 304.66 46.5108C304.122 46.4983 303.571 46.4855 303.045 46.4855C302.068 46.4855 301.042 46.4855 300.065 46.5343H299.869V45.4107H300.065C302.312 45.4107 302.312 44.4336 302.312 42.284V34.1252C302.312 33.0992 301.139 32.9038 300.162 32.9038H299.967V31.7802H300.211C300.559 31.7802 300.908 31.7928 301.25 31.8053C301.579 31.8172 301.902 31.829 302.214 31.829C302.849 31.829 303.631 31.829 304.168 31.7802H304.266L312.962 41.9908V34.7603C312.962 32.9038 312.327 32.9038 310.813 32.9038H310.617V31.7802H310.813C311.271 31.7802 311.753 31.7921 312.241 31.8041ZM323.271 31.829C322.696 31.829 322.096 31.8162 321.509 31.8037C320.949 31.7918 320.401 31.7802 319.9 31.7802H319.704V32.9038H319.9C321.463 32.9038 321.903 33.1481 321.903 34.0275V44.3359C321.903 45.2153 321.463 45.4595 319.9 45.4595H319.704V46.5832H319.9C320.926 46.5343 322.147 46.5343 323.271 46.5343C323.833 46.5343 324.419 46.5466 325.005 46.5588L325.005 46.5588C325.591 46.571 326.178 46.5832 326.739 46.5832H326.935V45.4595H326.739C325.176 45.4595 324.736 45.2153 324.736 44.3359V34.0275C324.736 33.1481 325.176 32.9038 326.739 32.9038H326.935V31.7802H326.739C325.616 31.829 324.394 31.829 323.271 31.829ZM341.115 31.805C341.591 31.8171 342.061 31.829 342.52 31.829C343.203 31.829 344.034 31.829 344.767 31.7802H344.962V32.9038H344.767C343.887 32.9038 343.643 32.9038 342.91 34.6137L337.634 46.8763H336.364L336.315 46.7786L331.039 34.174C330.599 33.1481 330.452 32.9038 329.182 32.9038H328.987V31.7802H329.182C329.695 31.7802 330.208 31.7924 330.721 31.8046C331.234 31.8168 331.747 31.829 332.26 31.829C333.384 31.829 334.458 31.829 335.533 31.7802H335.729V32.9038H334.849C334.019 32.9038 333.97 33.1969 333.97 33.4412C333.97 33.6366 334.019 33.8809 334.116 34.0763L334.165 34.1252L337.781 43.0656L341.103 34.7114C341.298 34.2718 341.396 33.8321 341.396 33.4901C341.396 32.9527 340.81 32.9038 339.637 32.9038H339.442V31.7802H339.637C340.132 31.7802 340.627 31.7927 341.115 31.805ZM358.788 43.0656C357.665 44.971 357.469 45.2641 354.636 45.2641C352.144 45.2641 351.655 44.7267 351.655 43.7008V39.5969H353.903C355.564 39.5969 355.857 39.6947 355.857 41.2092V41.4046H356.981V41.2092C356.932 40.4275 356.932 39.5481 356.932 38.7664C356.932 38.3823 356.944 38.0101 356.956 37.6322L356.956 37.6297L356.956 37.6277C356.968 37.238 356.981 36.8422 356.981 36.4214V36.226H355.857V36.4214C355.857 38.2779 355.368 38.2779 353.903 38.2779H351.655V33.0992H353.659C356.688 33.0992 357.029 33.2947 357.371 35.1023L357.42 35.2489H358.397L358.202 31.7802H358.007C355.759 31.829 353.268 31.829 350.776 31.829C350.11 31.829 349.432 31.8166 348.76 31.8042C348.101 31.7921 347.448 31.7802 346.819 31.7802H346.623V32.9038H346.819C348.382 32.9038 348.822 33.1481 348.822 34.0275V44.3359C348.822 45.2153 348.382 45.4595 346.819 45.4595H346.623V46.5832H346.819C348.578 46.5343 350.581 46.5343 352.486 46.5343C353.536 46.5343 354.562 46.5466 355.588 46.5588L355.588 46.5588C356.614 46.571 357.64 46.5832 358.691 46.5832H358.935L359.961 42.9679H358.886L358.788 43.0656ZM375.594 35.542C375.594 37.2031 374.568 38.3756 372.517 39.1084C375.594 44.3847 376.327 45.0198 378.037 45.4107L378.184 45.4595V46.5832H377.988C377.755 46.5832 377.477 46.5721 377.187 46.5604C376.869 46.5477 376.536 46.5343 376.229 46.5343C375.594 46.5343 375.057 46.5343 374.422 46.5832H374.226L374.178 46.5343C373.103 45.313 371.393 42.5282 369.927 40.0855L369.732 39.7924C369.585 39.7924 369.439 39.8046 369.292 39.8168C369.146 39.829 368.999 39.8412 368.852 39.8412C368.699 39.8412 368.546 39.8279 368.4 39.8151C368.266 39.8035 368.138 39.7924 368.022 39.7924V44.3359C368.022 45.3618 368.657 45.4595 370.025 45.4595H370.22V46.5832H370.025C369.463 46.5832 368.877 46.571 368.291 46.5588C367.704 46.5466 367.118 46.5343 366.556 46.5343C365.433 46.5343 364.211 46.5343 363.185 46.5832H362.99V45.4595H363.185C364.749 45.4595 365.188 45.2153 365.188 44.3359V34.0763C365.188 33.1969 364.749 32.9527 363.185 32.9527H362.99V31.829H363.185C363.687 31.829 364.235 31.8407 364.795 31.8526C365.381 31.8651 365.982 31.8779 366.556 31.8779C366.941 31.8779 367.362 31.866 367.788 31.854C368.228 31.8416 368.675 31.829 369.097 31.829C369.829 31.7802 370.513 31.7802 370.953 31.7802C373.787 31.7802 375.594 33.2458 375.594 35.542ZM369.194 38.5221C371.539 38.4733 372.712 37.4962 372.712 35.542C372.712 33.3435 370.855 32.9038 369.39 32.9527C369.146 32.9527 368.51 32.9527 368.12 33.0015V38.5221H369.194ZM386.489 37.9359C383.704 36.5679 383.313 36.0794 383.313 34.7603C383.313 33.4412 384.291 32.6107 385.707 32.6107C387.564 32.6107 388.15 33.8321 388.443 34.9069L388.492 35.0534H389.469L389.176 31.829H389.029C388.59 31.829 388.101 31.7801 387.564 31.6824C386.88 31.5847 386.196 31.5359 385.561 31.5359C382.776 31.5359 381.066 33.5878 381.066 35.542C381.066 37.9359 381.994 39.1084 385.268 40.7695C387.173 41.7466 387.808 42.4794 387.808 43.6031C387.808 43.9939 387.662 45.8504 385.219 45.8504C383.313 45.8504 382.385 45.0198 381.75 42.8214L381.701 42.6748H380.675L381.164 46.0947L381.262 46.1435C382.434 46.6809 383.655 46.974 384.975 46.974C388.101 46.974 390.349 45.2153 390.349 42.7725C390.3 40.8183 389.665 39.4992 386.489 37.9359ZM396.111 31.8037C396.698 31.8162 397.298 31.829 397.872 31.829C399.045 31.829 400.217 31.829 401.341 31.7802H401.536V32.9038H401.341C399.778 32.9038 399.338 33.1481 399.338 34.0275V44.3359C399.338 45.2153 399.778 45.4595 401.341 45.4595H401.536V46.5832H401.341C400.779 46.5832 400.193 46.571 399.607 46.5588C399.02 46.5466 398.434 46.5343 397.872 46.5343C396.749 46.5343 395.527 46.5343 394.501 46.5832H394.306V45.4595H394.501C396.065 45.4595 396.504 45.2153 396.504 44.3359V34.0275C396.504 33.1481 396.065 32.9038 394.501 32.9038H394.306V31.7802H394.501C395.003 31.7802 395.551 31.7918 396.111 31.8037ZM416.388 31.145C415.9 31.7801 415.656 31.7801 414.972 31.7801H405.591C405.201 31.7801 404.468 31.7313 404.468 31.2427V31.0473H403.539L403.1 35.2977H404.223L404.272 35.1511C404.761 33.1969 405.054 33.0504 406.764 33.0504H408.816V44.287C408.816 45.1664 408.327 45.4107 406.666 45.4107H406.471V46.5343H407.057C408.181 46.4855 409.207 46.4855 410.184 46.4855C410.734 46.4855 411.307 46.4972 411.893 46.5092C412.503 46.5216 413.127 46.5343 413.75 46.5343H414.043V45.4107H413.848C412.138 45.4107 411.698 45.1664 411.698 44.287V33.0504H414.434C415.46 33.0504 415.704 33.1969 415.851 35.1023V35.2489H416.975L417.317 30.9985H416.437L416.388 31.145ZM432.51 31.829C432.95 31.7802 433.39 31.7802 433.829 31.7802V31.829H433.927V32.9527H433.732C432.852 32.9527 432.364 32.9527 431.142 34.5649L427.429 39.4992V44.6779C427.429 45.4595 428.211 45.5084 429.628 45.5084H429.823V46.6321H429.628C429.011 46.6321 428.407 46.6196 427.808 46.6073C427.222 46.5952 426.642 46.5832 426.062 46.5832C424.889 46.5832 423.716 46.5832 422.446 46.6321H422.251V45.5084H422.446C424.058 45.5084 424.547 45.4595 424.547 44.5313V40.1343L419.906 33.7832C419.417 33.1481 418.978 32.9527 418.245 32.9527H418.049V31.829H418.245C419.515 31.8779 420.541 31.8779 421.371 31.8779C422.446 31.8779 423.57 31.8779 424.694 31.829H424.889V32.9527H424.694C423.326 32.9527 423.277 33.0992 423.277 33.1481C423.277 33.2947 423.326 33.3924 423.521 33.6366L423.668 33.8321L426.794 38.2779L429.481 34.516C429.774 34.174 430.068 33.7343 430.068 33.4412C430.068 33.1481 430.068 32.9527 428.553 32.9527H428.358V31.829H428.553C429.774 31.8779 430.654 31.8779 431.387 31.8779C431.552 31.8779 431.729 31.8664 431.911 31.8547C432.106 31.842 432.308 31.829 432.51 31.829Z" fill="#1A1B1F"/>
<path fill-rule="evenodd" clip-rule="evenodd" d="M28.089 0.317551L28.8707 1.29465C29.2127 1.68549 31.8509 5.00763 31.8509 7.74351V7.74354C31.8509 8.28093 31.8509 8.67176 31.7532 9.11144H29.6524C29.7501 8.62289 29.799 8.28091 29.799 7.74351C29.799 6.52213 28.8707 4.76335 28.089 3.59083C27.3074 4.76335 26.3791 6.52213 26.3791 7.74351C26.3791 8.28091 26.3791 8.62289 26.5257 9.11144H24.4249L24.4136 9.01016C24.3688 8.61038 24.3272 8.23932 24.3272 7.74351C24.3272 5.16506 26.7139 2.06589 27.2339 1.39057L27.2341 1.39036C27.2658 1.34923 27.2905 1.3171 27.3074 1.29465L28.089 0.317551ZM16.4127 30.4611H19.0997C19.0997 30.4611 19.0997 24.6473 19.0509 24.5985C16.4127 23.7679 13.5303 23.3771 11.2829 23.3771C6.44629 23.3771 1.12109 25.3802 1.12109 30.9496C1.12109 36.3982 5.29757 37.5732 9.45995 38.7443C10.4107 39.0117 11.3607 39.279 12.26 39.5969C14.1654 40.3786 14.9959 41.6489 14.9959 43.6519C14.9959 46.6809 12.6997 48.4885 9.76842 48.4885C5.22491 48.4885 4.34552 46.3389 4.00354 42.1863H1.16995V48.7328C3.90583 49.5145 6.44628 50.0519 9.47529 50.0519C14.947 50.0519 20.4188 48.0977 20.4188 41.7466C20.4188 37.0076 17.8783 35.6885 13.8722 34.4183C13.3701 34.2597 12.8092 34.1202 12.227 33.9754C9.58062 33.3173 6.49514 32.5498 6.49514 29.3863C6.49514 26.3573 8.5959 24.9893 11.4783 24.9893C15.1425 24.9893 16.2173 27.1878 16.4127 30.4611ZM21.6401 25.429C25.3043 25.429 25.3043 26.9435 25.3043 29.2397V51.3221C25.3043 55.8168 22.7638 60.9466 16.4127 62.1191V63.6824C24.9134 62.9985 30.9226 59.0901 30.9226 49.7099V29.2397C30.9226 27.0217 30.9226 25.4699 34.492 25.4298L34.489 25.4779C38.202 25.4779 38.202 26.9924 38.202 29.2397V40.9649C38.202 48.5374 42.4035 50.1008 49.3898 50.1008C55.1546 50.1008 59.4539 47.4626 59.4539 41.2092V29.1908C59.4539 26.6992 59.4539 25.429 62.9714 25.429V23.9145H53.5424V25.429C57.2554 25.429 57.2554 26.455 57.2554 29.1908V40.916C57.2554 45.6061 54.8127 48.0977 50.0249 48.0977C45.2371 48.0977 43.6737 45.6061 43.6737 41.2092V29.1908C43.6737 26.9924 43.9669 25.429 47.3867 25.429V23.9145H34.6356H34.5867H21.6401V25.429ZM27.0142 13.9969C26.9653 11.8962 25.5974 9.6 23.0081 9.25801C21.7867 9.11145 20.6631 9.45343 19.7837 10.2351C18.9531 10.9679 18.4646 11.9939 18.4646 13.0687C18.4157 15.4137 20.0768 17.0259 22.9592 17.5634L23.3501 15.5603C21.4447 15.2183 20.5165 14.3878 20.5165 13.1176C20.5165 12.629 20.7608 12.1405 21.1516 11.7985C21.5913 11.4076 22.1776 11.2611 22.7638 11.3099C24.2783 11.5053 25.0111 12.8733 25.0111 14.0458V14.0947L25.4997 21.8137H27.5516L27.0142 13.9969ZM33.1699 9.25801C30.5806 9.6 29.2127 11.8962 29.1638 13.9969L28.6264 21.8137H30.6783L31.1669 14.0947V14.0458C31.1669 12.8733 31.8997 11.5053 33.4142 11.3099C34.0005 11.2611 34.5867 11.4076 35.0264 11.7985C35.4172 12.1405 35.6615 12.629 35.6615 13.1176C35.6615 14.3878 34.6844 15.2183 32.8279 15.5603L33.2188 17.5634C36.1012 17.0259 37.7623 15.4137 37.7134 13.0687C37.7134 11.9939 37.2249 10.9679 36.3943 10.2351C35.515 9.45343 34.3913 9.11145 33.1699 9.25801Z" fill="#1A1B1F"/>
</svg>
