<svg width="310" height="34" viewBox="0 0 310 34" fill="none" xmlns="http://www.w3.org/2000/svg">
<path fill-rule="evenodd" clip-rule="evenodd" d="M204.021 4.96473C201.147 5.2183 200.892 5.43616 200.892 8.50116V26.159C200.892 29.2212 201.181 29.4404 204.021 29.694V30.859H193.389V29.694C196.376 29.4404 196.667 29.2212 196.667 26.159V17.5119H183.676V26.159C183.676 29.2212 183.965 29.4404 186.768 29.694V30.859H176.392V29.694C179.123 29.4404 179.451 29.2212 179.451 26.159V8.50116C179.451 5.43616 179.123 5.2183 176.247 4.96473V3.79973H186.66V4.96473C183.965 5.2183 183.676 5.43616 183.676 8.50116V15.7597H196.667V8.50116C196.667 5.43616 196.376 5.2183 193.606 4.96473V3.79973H204.021V4.96473Z" fill="#1A1B1F"/>
<path fill-rule="evenodd" clip-rule="evenodd" d="M224.428 24.9173C224.209 26.4116 223.481 29.7666 223.157 30.8587H204.949V29.6937C208.115 29.4401 208.442 29.1837 208.442 26.1216V11.943C208.442 8.73586 208.115 8.553 205.422 8.33229V7.16872H222.245C222.282 7.89729 222.462 10.4151 222.609 12.5637L221.373 12.7466C221.044 11.3573 220.606 10.3023 220.02 9.61014C219.441 8.88086 218.458 8.628 216.2 8.628H214.054C212.777 8.628 212.668 8.70086 212.668 9.86443V17.8473H215.472C218.677 17.8473 219.039 17.6294 219.514 15.0766H220.716V22.2944H219.514C219.039 19.7066 218.641 19.5251 215.509 19.5251H212.668V26.0137C212.668 27.7616 212.849 28.6366 213.541 29.0023C214.232 29.3651 215.509 29.4023 217.038 29.4023C219.261 29.4023 220.425 29.1444 221.261 28.1987C221.953 27.4323 222.609 26.2301 223.226 24.698L224.428 24.9173Z" fill="#1A1B1F"/>
<path fill-rule="evenodd" clip-rule="evenodd" d="M234.381 12.5987H234.306C233.215 15.4044 232.231 18.2458 231.215 20.9815H237.295L234.381 12.5987ZM237.661 30.8587V29.6944C239.844 29.3651 240.098 28.9629 239.553 27.4329C239.152 26.2301 238.531 24.5158 237.877 22.7658H230.633C230.159 24.0801 229.649 25.5015 229.211 26.9594C228.593 28.9279 228.775 29.3651 231.434 29.6944V30.8587H224.281V29.6944C225.752 29.4022 226.224 29.0387 227.465 25.9008L234.966 7.05866L236.567 6.62366C238.86 12.9629 241.156 19.5251 243.522 25.7937C244.723 29.0022 245.196 29.4401 246.699 29.6944V30.8587H237.661Z" fill="#1A1B1F"/>
<path fill-rule="evenodd" clip-rule="evenodd" d="M264.984 24.8475C264.695 26.2675 263.965 29.8404 263.639 30.8589H247.54V29.6939C248.824 29.6296 249.838 29.2211 249.838 26.1211V11.9054C249.838 8.80964 249.547 8.59036 246.67 8.3325V7.16893H257.193V8.3325C254.389 8.59036 254.062 8.77179 254.062 11.9054V26.2304C254.062 28.0182 254.207 28.7089 254.934 29.0382C255.59 29.3296 256.648 29.4025 257.921 29.4025C259.667 29.4025 260.944 29.1832 261.782 28.1982C262.472 27.4675 263.128 26.3011 263.748 24.5154L264.984 24.8475Z" fill="#1A1B1F"/>
<path fill-rule="evenodd" clip-rule="evenodd" d="M281.369 13.1832C280.935 11.3568 280.499 10.2311 279.918 9.61036C279.295 8.88108 278.498 8.62822 276.128 8.62822H274.161V26.1589C274.161 29.1446 274.488 29.4404 277.802 29.6939V30.8589H266.442V29.6939C269.609 29.4404 269.939 29.1832 269.939 26.1589V8.62822H268.335C265.315 8.62822 264.622 8.99108 264.109 9.68608C263.564 10.3025 263.167 11.4689 262.729 13.2182H261.49C261.634 10.7039 261.855 8.1525 261.927 6.25679H262.766C263.31 7.09536 263.784 7.16893 264.803 7.16893H279.37C280.315 7.16893 280.753 6.94965 281.369 6.25679H282.209C282.209 7.82465 282.39 10.8504 282.572 13.1082L281.369 13.1832Z" fill="#1A1B1F"/>
<path fill-rule="evenodd" clip-rule="evenodd" d="M309.029 8.3325C306.151 8.59036 305.895 8.80964 305.895 11.8718V26.1589C305.895 29.2211 306.187 29.4404 309.029 29.6939V30.8589H298.394V29.6939C301.384 29.4404 301.67 29.2211 301.67 26.1589V19.1946H290.818V26.1589C290.818 29.2211 291.112 29.4404 293.917 29.6939V30.8589H283.536V29.6939C286.267 29.4404 286.594 29.2211 286.594 26.1589V11.8718C286.594 8.80964 286.267 8.59036 283.394 8.3325V7.16893H293.806V8.3325C291.112 8.59036 290.818 8.80964 290.818 11.8718V17.4454H301.67V11.8718C301.67 8.80964 301.384 8.59036 298.613 8.3325V7.16893H309.029V8.3325Z" fill="#1A1B1F"/>
<path fill-rule="evenodd" clip-rule="evenodd" d="M76.6454 24.9187C76.4284 26.413 75.6998 29.7666 75.3723 30.8587H57.1655V29.6944C60.3326 29.4401 60.6616 29.1837 60.6616 26.1216V11.9459C60.6616 9.68586 60.556 8.90872 59.3514 8.54872C58.9517 8.42872 58.7013 8.38801 58.2923 8.33658V7.17015H74.4617C74.4981 7.90015 74.6793 10.4152 74.8256 12.5637L73.5882 12.7466C73.2606 11.3602 72.8232 10.3052 72.2402 9.61158C71.6578 8.88086 70.6745 8.62801 68.4166 8.62801H66.2678C64.994 8.62801 64.8848 8.70086 64.8848 9.86729V17.8487H67.6879C70.8921 17.8487 71.2568 17.6294 71.7292 15.0794H72.9331V22.2973H71.7292C71.2568 19.708 70.8557 19.5252 67.7236 19.5252H64.8848V26.0137C64.8848 27.7616 65.0661 28.6366 65.7583 29.0023C66.4512 29.3651 67.7236 29.4023 69.2551 29.4023C71.4773 29.4023 72.6405 29.1444 73.479 28.1987C74.1705 27.4352 74.8256 26.2302 75.4451 24.7009L76.6454 24.9187Z" fill="#1A1B1F"/>
<path fill-rule="evenodd" clip-rule="evenodd" d="M97.1823 30.859V29.694C99.9862 29.4026 100.17 29.1447 100.133 25.6119L100.06 11.289H99.8777L91.539 30.6054H90.6284L82.9462 11.689H82.8006L82.3275 21.5283C82.1819 24.5547 82.1819 26.194 82.2918 27.469C82.3989 29.1447 83.1646 29.4404 85.6038 29.6562V30.859H76.9368V29.6562C79.0134 29.4754 79.7063 28.8919 79.9597 27.5426C80.1788 26.3419 80.4335 24.5547 80.6883 20.7262L81.2342 13.4026C81.5611 9.02615 81.307 8.6283 78.1392 8.33687V7.17044H85.0956L92.5595 23.9354L100.17 7.17044H106.997V8.33687C103.975 8.6283 103.92 8.84615 103.993 12.1269L104.319 25.6119C104.43 29.1447 104.487 29.4026 107.436 29.694V30.859H97.1823Z" fill="#1A1B1F"/>
<path fill-rule="evenodd" clip-rule="evenodd" d="M115.945 19.489C116.381 19.7083 117.219 19.8897 118.164 19.8897C119.877 19.8897 122.79 18.8319 122.79 14.0204C122.79 9.9383 120.389 8.48044 117.912 8.48044C117.074 8.48044 116.528 8.66187 116.309 8.88044C116.054 9.09973 115.945 9.50187 115.945 10.2312V19.489ZM118.531 7.17044C121.298 7.17044 123.374 7.57044 124.831 8.59044C126.433 9.75544 127.415 11.5076 127.415 13.9126C127.415 18.7247 123.81 20.9819 120.06 21.4183C119.513 21.4926 118.931 21.4926 118.494 21.4926L115.945 20.8369V26.1212C115.945 29.2212 116.273 29.4404 119.441 29.694V30.859H108.626V29.694C111.431 29.4404 111.757 29.1833 111.757 26.1212V11.9069C111.757 8.77473 111.431 8.59044 108.215 8.33687V7.17044H118.531Z" fill="#1A1B1F"/>
<path fill-rule="evenodd" clip-rule="evenodd" d="M146.386 24.8475C146.095 26.2689 145.367 29.8404 145.039 30.8589H127.78V29.6939C130.91 29.4404 131.238 29.2211 131.238 26.1211V11.9068C131.238 8.80965 130.947 8.59036 128.07 8.33679V7.17036H138.595V8.33679C135.79 8.59036 135.462 8.77465 135.462 11.9068V26.2304C135.462 28.0182 135.609 28.7089 136.335 29.0382C136.992 29.3296 138.048 29.4025 139.322 29.4025C141.072 29.4025 142.345 29.1832 143.183 28.1982C143.873 27.4689 144.529 26.3039 145.15 24.5182L146.386 24.8475Z" fill="#1A1B1F"/>
<path fill-rule="evenodd" clip-rule="evenodd" d="M166.086 24.9187C165.867 26.413 165.14 29.7666 164.813 30.8587H146.605V29.6944C149.772 29.4401 150.101 29.1837 150.101 26.1216V11.9459C150.101 8.73586 149.772 8.55444 147.08 8.33658V7.17015H163.901C163.938 7.90015 164.118 10.4152 164.267 12.5637L163.029 12.7466C162.699 11.3602 162.263 10.3052 161.679 9.61158C161.095 8.88086 160.115 8.62801 157.857 8.62801H155.709C154.435 8.62801 154.325 8.70086 154.325 9.86729V17.8487H157.129C160.333 17.8487 160.699 17.6294 161.17 15.0794H162.371V22.2973H161.17C160.699 19.708 160.298 19.5252 157.166 19.5252H154.325V26.0137C154.325 27.7616 154.506 28.6366 155.199 29.0023C155.89 29.3651 157.166 29.4023 158.695 29.4023C160.915 29.4023 162.08 29.1444 162.92 28.1987C163.609 27.4352 164.267 26.2302 164.887 24.7009L166.086 24.9187Z" fill="#1A1B1F"/>
<path fill-rule="evenodd" clip-rule="evenodd" d="M55.9468 10.7753C55.4744 8.55315 55.1704 7.30958 54.5888 6.69172C53.9694 5.95958 52.5835 5.53386 50.2164 5.53386H48.2325V26.1589C48.2325 29.1446 48.5594 29.4403 51.8742 29.6939V30.8589H40.5125V29.6939C43.6796 29.4403 44.0086 29.1831 44.0086 26.1589V5.53386H41.9676C38.9447 5.53386 38.1754 6.02529 37.6651 6.71815C37.1178 7.33529 36.766 8.60315 36.2565 10.7903H35.0183C35.2367 7.83744 35.485 4.78315 35.5578 2.88744H36.3956C36.9415 3.72458 37.4154 3.79958 38.4337 3.79958H53.8787C54.825 3.79958 55.2624 3.58101 55.8812 2.88744H56.7182C56.7182 4.45386 56.9302 8.03958 57.1493 10.7024L55.9468 10.7753Z" fill="#1A1B1F"/>
<path fill-rule="evenodd" clip-rule="evenodd" d="M0.741699 0.119293L0.745981 33.8807H30.3415V0.119293H0.741699ZM28.0345 2.43122V12.6241H25.8151V4.64836H5.26911V12.6241H3.05615V2.43122H28.0345ZM8.34192 31.5714H22.603V29.3521H8.34192V31.5714ZM14.3887 6.96665H7.57068V12.6238H9.79077L9.79362 9.18379H12.1671V24.8195H8.34211V27.0367H14.3887V6.96665ZM23.5075 6.96665H16.6931V27.0367H22.6012V24.8195H18.9118V9.18379L21.2889 9.18737L21.2896 12.6238H23.5075V6.96665Z" fill="#1A1B1F"/>
</svg>
