<svg width="279" height="51" viewBox="0 0 279 51" fill="none" xmlns="http://www.w3.org/2000/svg">
<path d="M26.0675 37.2425V50H20.3975C9.9575 50 4.7375 44.8025 4.7375 34.4075V24.4175H0.0125V11.93H4.7375V2.75H19.7225V11.93H25.9325V24.4175H19.7225V34.6775C19.7225 35.5775 19.925 36.23 20.33 36.635C20.78 37.04 21.5 37.2425 22.49 37.2425H26.0675ZM44.3969 11.93V50H29.4119V11.93H44.3969ZM98.6042 11.66C103.464 11.66 107.222 13.1225 109.877 16.0475C112.577 18.9725 113.927 22.9325 113.927 27.9275V50H99.0092V29.8175C99.0092 28.1975 98.5142 26.9375 97.5242 26.0375C96.5792 25.0925 95.2967 24.62 93.6767 24.62C92.0117 24.62 90.7067 25.0925 89.7617 26.0375C88.8167 26.9375 88.3442 28.1975 88.3442 29.8175V50H73.4267V29.8175C73.4267 28.1975 72.9317 26.9375 71.9417 26.0375C70.9967 25.0925 69.7142 24.62 68.0942 24.62C66.4292 24.62 65.1242 25.0925 64.1792 26.0375C63.2342 26.9375 62.7617 28.1975 62.7617 29.8175V50H47.7767V11.93H62.7617V17.06C63.8417 15.44 65.3042 14.135 67.1492 13.145C69.0392 12.155 71.2442 11.66 73.7642 11.66C76.5092 11.66 78.9392 12.2675 81.0542 13.4825C83.1692 14.6525 84.8567 16.3175 86.1167 18.4775C87.5117 16.4975 89.2892 14.8775 91.4492 13.6175C93.6092 12.3125 95.9942 11.66 98.6042 11.66ZM140.803 18.95C142.333 16.745 144.201 14.99 146.406 13.685C148.611 12.335 150.906 11.66 153.291 11.66V27.6575H149.038C146.203 27.6575 144.111 28.1525 142.761 29.1425C141.456 30.1325 140.803 31.8875 140.803 34.4075V50H125.818V11.93H140.803V18.95ZM170.962 17.1275C171.907 15.3725 173.257 14 175.012 13.01C176.812 11.975 178.95 11.4575 181.425 11.4575C184.395 11.4575 187.072 12.245 189.457 13.82C191.842 15.35 193.71 17.6 195.06 20.57C196.455 23.495 197.152 26.96 197.152 30.965C197.152 34.97 196.455 38.4575 195.06 41.4275C193.71 44.3525 191.842 46.6025 189.457 48.1775C187.072 49.7075 184.395 50.4725 181.425 50.4725C178.95 50.4725 176.812 49.9775 175.012 48.9875C173.257 47.9525 171.907 46.5575 170.962 44.8025V50H155.977V0.0499994H170.962V17.1275ZM181.965 30.965C181.965 28.94 181.447 27.365 180.412 26.24C179.377 25.115 178.05 24.5525 176.43 24.5525C174.81 24.5525 173.482 25.115 172.447 26.24C171.412 27.365 170.895 28.94 170.895 30.965C170.895 32.99 171.412 34.565 172.447 35.69C173.482 36.815 174.81 37.3775 176.43 37.3775C178.05 37.3775 179.377 36.815 180.412 35.69C181.447 34.565 181.965 32.99 181.965 30.965ZM226.493 11.66C230.858 11.66 234.256 13.1225 236.686 16.0475C239.161 18.9725 240.398 22.9325 240.398 27.9275V50H225.481V29.8175C225.481 28.0175 224.986 26.6 223.996 25.565C223.051 24.485 221.768 23.945 220.148 23.945C218.483 23.945 217.178 24.485 216.233 25.565C215.288 26.6 214.816 28.0175 214.816 29.8175V50H199.831V11.93H214.816V17.735C215.986 15.935 217.538 14.4725 219.473 13.3475C221.453 12.2225 223.793 11.66 226.493 11.66ZM261.814 50.4725C258.214 50.4725 255.019 49.8875 252.229 48.7175C249.484 47.5475 247.301 45.9275 245.681 43.8575C244.061 41.7875 243.139 39.4475 242.914 36.8375H257.291C257.471 37.9625 257.944 38.795 258.709 39.335C259.519 39.875 260.531 40.145 261.746 40.145C262.511 40.145 263.119 39.9875 263.569 39.6725C264.019 39.3125 264.244 38.885 264.244 38.39C264.244 37.535 263.771 36.9275 262.826 36.5675C261.881 36.2075 260.284 35.8025 258.034 35.3525C255.289 34.8125 253.016 34.2275 251.216 33.5975C249.461 32.9675 247.909 31.8875 246.559 30.3575C245.254 28.8275 244.601 26.7125 244.601 24.0125C244.601 21.6725 245.209 19.5575 246.424 17.6675C247.684 15.7325 249.529 14.225 251.959 13.145C254.389 12.02 257.336 11.4575 260.801 11.4575C265.931 11.4575 269.936 12.7175 272.816 15.2375C275.741 17.7575 277.496 21.0425 278.081 25.0925H264.784C264.559 24.0575 264.086 23.27 263.366 22.73C262.646 22.145 261.679 21.8525 260.464 21.8525C259.699 21.8525 259.114 22.01 258.709 22.325C258.304 22.595 258.101 23.0225 258.101 23.6075C258.101 24.3725 258.574 24.9575 259.519 25.3625C260.464 25.7225 261.971 26.105 264.041 26.51C266.786 27.05 269.104 27.6575 270.994 28.3325C272.884 29.0075 274.526 30.1775 275.921 31.8425C277.316 33.4625 278.014 35.7125 278.014 38.5925C278.014 40.8425 277.361 42.8675 276.056 44.6675C274.751 46.4675 272.861 47.885 270.386 48.92C267.956 49.955 265.099 50.4725 261.814 50.4725Z" fill="black"/>
</svg>
